<svg aria-hidden="true" style="position: absolute; width: 0; height: 0; overflow: hidden;" version="1.1" xmlns="http://www.w3.org/2000/svg" xmlns:xlink="http://www.w3.org/1999/xlink">
<defs>
<symbol id="icon-linkedin" viewBox="0 0 35 32">
<path d="M33.935 32v-0.001h0.008v-11.736c0-5.741-1.254-10.164-8.062-10.164-3.273 0-5.469 1.771-6.366 3.449h-0.095v-2.913h-6.455v21.364h6.721v-10.579c0-2.785 0.536-5.479 4.034-5.479 3.447 0 3.499 3.179 3.499 5.657v10.401h6.715z"></path>
<path d="M2.021 10.636h6.729v21.364h-6.729v-21.364z"></path>
<path d="M5.383 0c-2.152 0-3.898 1.721-3.898 3.843s1.746 3.879 3.898 3.879c2.152 0 3.898-1.757 3.898-3.879-0.001-2.121-1.747-3.843-3.898-3.843v0z"></path>
</symbol>
<symbol id="icon-facebook" viewBox="0 0 34 32">
<path d="M22.092 5.313h2.963v-5.088c-0.511-0.069-2.269-0.225-4.317-0.225-4.272 0-7.199 2.649-7.199 7.519v4.481h-4.714v5.688h4.714v14.312h5.78v-14.311h4.524l0.718-5.688h-5.243v-3.919c0.001-1.644 0.45-2.769 2.774-2.769z"></path>
</symbol>
<symbol id="icon-twitter" viewBox="0 0 34 32">
<path d="M33.486 6.078c-1.207 0.522-2.493 0.868-3.834 1.036 1.379-0.812 2.432-2.088 2.927-3.626-1.286 0.756-2.706 1.29-4.219 1.588-1.221-1.282-2.962-2.076-4.86-2.076-3.684 0-6.65 2.948-6.65 6.562 0 0.52 0.045 1.020 0.154 1.496-5.532-0.266-10.427-2.88-13.715-6.862-0.574 0.982-0.911 2.106-0.911 3.316 0 2.272 1.187 4.286 2.956 5.452-1.069-0.020-2.118-0.326-3.006-0.808 0 0.020 0 0.046 0 0.072 0 3.188 2.306 5.836 5.331 6.446-0.542 0.146-1.132 0.216-1.745 0.216-0.426 0-0.856-0.024-1.26-0.112 0.862 2.598 3.309 4.508 6.218 4.57-2.264 1.746-5.138 2.798-8.25 2.798-0.546 0-1.069-0.024-1.592-0.090 2.948 1.874 6.441 2.944 10.208 2.944 12.245 0 18.939-10 18.939-18.668 0-0.29-0.010-0.57-0.024-0.848 1.321-0.924 2.43-2.078 3.335-3.406z"></path>
</symbol>
<symbol id="icon-instagram" viewBox="0 0 34 32">
<path d="M32.425 9.408c-0.076-1.7-0.355-2.869-0.755-3.882-0.412-1.075-1.046-2.038-1.877-2.838-0.812-0.813-1.794-1.444-2.872-1.844-1.033-0.394-2.213-0.669-3.937-0.744-1.737-0.081-2.289-0.1-6.696-0.1s-4.958 0.019-6.689 0.094c-1.725 0.075-2.91 0.35-3.937 0.744-1.091 0.406-2.067 1.031-2.879 1.85-0.824 0.8-1.464 1.769-1.87 2.832-0.399 1.019-0.678 2.182-0.754 3.882-0.082 1.713-0.102 2.257-0.102 6.601s0.019 4.888 0.095 6.595c0.076 1.7 0.355 2.869 0.755 3.882 0.412 1.075 1.052 2.038 1.877 2.838 0.812 0.813 1.794 1.444 2.872 1.844 1.034 0.394 2.213 0.669 3.938 0.744 1.731 0.075 2.283 0.094 6.689 0.094s4.958-0.019 6.689-0.094c1.724-0.075 2.91-0.35 3.937-0.744 2.181-0.832 3.906-2.532 4.749-4.682 0.399-1.019 0.678-2.182 0.754-3.882 0.076-1.707 0.095-2.251 0.095-6.595s-0.006-4.888-0.082-6.595zM29.503 22.473c-0.070 1.563-0.336 2.407-0.558 2.969-0.545 1.394-1.668 2.5-3.082 3.038-0.571 0.219-1.433 0.481-3.012 0.55-1.712 0.075-2.225 0.094-6.556 0.094s-4.851-0.019-6.556-0.094c-1.585-0.069-2.441-0.331-3.012-0.55-0.704-0.256-1.344-0.663-1.864-1.194-0.539-0.519-0.951-1.144-1.211-1.838-0.222-0.563-0.488-1.413-0.558-2.969-0.076-1.688-0.095-2.194-0.095-6.464s0.019-4.782 0.095-6.464c0.070-1.563 0.336-2.407 0.558-2.969 0.26-0.694 0.672-1.325 1.218-1.838 0.526-0.531 1.16-0.938 1.864-1.194 0.571-0.219 1.433-0.481 3.012-0.55 1.712-0.075 2.226-0.094 6.556-0.094 4.337 0 4.85 0.019 6.556 0.094 1.585 0.069 2.441 0.331 3.012 0.55 0.704 0.256 1.344 0.662 1.864 1.194 0.539 0.519 0.951 1.144 1.211 1.838 0.222 0.563 0.488 1.413 0.558 2.969 0.076 1.688 0.095 2.194 0.095 6.464s-0.019 4.77-0.095 6.458z"></path>
<path d="M16.289 7.783c-4.603 0-8.338 3.682-8.338 8.22s3.735 8.22 8.338 8.22c4.603 0 8.338-3.682 8.338-8.22s-3.735-8.22-8.338-8.22zM16.289 21.336c-2.986 0-5.409-2.388-5.409-5.332s2.422-5.332 5.409-5.332c2.986 0 5.408 2.388 5.408 5.332s-2.422 5.332-5.408 5.332v0z"></path>
<path d="M26.903 7.458c0 1.060-0.872 1.919-1.947 1.919s-1.947-0.859-1.947-1.919c0-1.060 0.872-1.919 1.947-1.919s1.947 0.859 1.947 1.919v0z"></path>
</symbol>
<symbol id="icon-github" viewBox="0 0 32 32">
<path d="M16 2.667c-1.751 0-3.485 0.345-5.102 1.015s-3.088 1.652-4.326 2.89c-2.5 2.501-3.905 5.892-3.905 9.428 0 5.893 3.827 10.893 9.12 12.667 0.667 0.107 0.88-0.307 0.88-0.667v-2.253c-3.693 0.8-4.48-1.787-4.48-1.787-0.613-1.547-1.48-1.96-1.48-1.96-1.213-0.827 0.093-0.8 0.093-0.8 1.333 0.093 2.040 1.373 2.040 1.373 1.16 2.027 3.12 1.427 3.88 1.107 0.12-0.867 0.467-1.453 0.84-1.787-2.96-0.333-6.067-1.48-6.067-6.56 0-1.48 0.507-2.667 1.373-3.613-0.133-0.333-0.6-1.72 0.133-3.52 0 0 1.12-0.36 3.667 1.36 1.053-0.293 2.2-0.44 3.333-0.44s2.28 0.147 3.333 0.44c2.547-1.72 3.667-1.36 3.667-1.36 0.733 1.8 0.267 3.187 0.133 3.52 0.867 0.947 1.373 2.133 1.373 3.613 0 5.093-3.12 6.213-6.093 6.547 0.48 0.413 0.92 1.227 0.92 2.467v3.653c0 0.36 0.213 0.787 0.893 0.667 5.293-1.787 9.107-6.773 9.107-12.667 0-1.751-0.345-3.485-1.015-5.102s-1.652-3.088-2.89-4.326-2.708-2.22-4.326-2.89c-1.618-0.67-3.351-1.015-5.102-1.015z"></path>
</symbol>
<symbol id="icon-figma" viewBox="0 0 24 24">
<path d="M13 12.5c0-0.691 0.279-1.314 0.732-1.768s1.077-0.732 1.768-0.732 1.314 0.279 1.768 0.732 0.732 1.077 0.732 1.768-0.279 1.314-0.732 1.768-1.077 0.732-1.768 0.732-1.314-0.279-1.768-0.732-0.732-1.077-0.732-1.768zM8.5 8c-0.691 0-1.314-0.279-1.768-0.732s-0.732-1.077-0.732-1.768 0.279-1.314 0.732-1.768 1.077-0.732 1.768-0.732h2.5v5zM13 8v-5h2.5c0.691 0 1.314 0.279 1.768 0.732s0.732 1.077 0.732 1.768-0.279 1.314-0.732 1.768-1.077 0.732-1.768 0.732zM11 17v2.5c0 0.691-0.279 1.314-0.732 1.768s-1.077 0.732-1.768 0.732-1.314-0.279-1.768-0.732-0.732-1.077-0.732-1.768 0.279-1.314 0.732-1.768 1.077-0.732 1.768-0.732zM4 12.5c0 1.242 0.505 2.369 1.318 3.182 0.112 0.112 0.23 0.218 0.353 0.318-0.123 0.1-0.241 0.206-0.353 0.318-0.813 0.813-1.318 1.94-1.318 3.182s0.505 2.369 1.318 3.182 1.94 1.318 3.182 1.318 2.369-0.505 3.182-1.318 1.318-1.94 1.318-3.182v-3.258c0.715 0.478 1.575 0.758 2.5 0.758 1.242 0 2.369-0.505 3.182-1.318s1.318-1.94 1.318-3.182-0.505-2.369-1.318-3.182c-0.112-0.112-0.23-0.218-0.353-0.318 0.123-0.1 0.241-0.206 0.353-0.318 0.813-0.813 1.318-1.94 1.318-3.182s-0.505-2.369-1.318-3.182-1.94-1.318-3.182-1.318h-7c-1.242 0-2.369 0.505-3.182 1.318s-1.318 1.94-1.318 3.182 0.505 2.369 1.318 3.182c0.112 0.112 0.23 0.218 0.353 0.318-0.123 0.1-0.241 0.206-0.353 0.318-0.813 0.813-1.318 1.94-1.318 3.182zM6 12.5c0-0.691 0.279-1.314 0.732-1.768s1.077-0.732 1.768-0.732h2.5v5h-2.5c-0.691 0-1.314-0.279-1.768-0.732s-0.732-1.077-0.732-1.768z"></path>
</symbol>
</defs>
</svg>
