<svg aria-hidden="true" style="position: absolute; width: 0; height: 0; overflow: hidden;" version="1.1" xmlns="http://www.w3.org/2000/svg" xmlns:xlink="http://www.w3.org/1999/xlink">
<defs>
<symbol id="icon-linkedin" viewBox="0 0 35 32">
<path d="M33.935 32v-0.001h0.008v-11.736c0-5.741-1.254-10.164-8.062-10.164-3.273 0-5.469 1.771-6.366 3.449h-0.095v-2.913h-6.455v21.364h6.721v-10.579c0-2.785 0.536-5.479 4.034-5.479 3.447 0 3.499 3.179 3.499 5.657v10.401h6.715z"></path>
<path d="M2.021 10.636h6.729v21.364h-6.729v-21.364z"></path>
<path d="M5.383 0c-2.152 0-3.898 1.721-3.898 3.843s1.746 3.879 3.898 3.879c2.152 0 3.898-1.757 3.898-3.879-0.001-2.121-1.747-3.843-3.898-3.843v0z"></path>
</symbol>
<symbol id="icon-facebook" viewBox="0 0 34 32">
<path d="M22.092 5.313h2.963v-5.088c-0.511-0.069-2.269-0.225-4.317-0.225-4.272 0-7.199 2.649-7.199 7.519v4.481h-4.714v5.688h4.714v14.312h5.78v-14.311h4.524l0.718-5.688h-5.243v-3.919c0.001-1.644 0.45-2.769 2.774-2.769z"></path>
</symbol>
<symbol id="icon-twitter" viewBox="0 0 34 32">
<path d="M33.486 6.078c-1.207 0.522-2.493 0.868-3.834 1.036 1.379-0.812 2.432-2.088 2.927-3.626-1.286 0.756-2.706 1.29-4.219 1.588-1.221-1.282-2.962-2.076-4.86-2.076-3.684 0-6.65 2.948-6.65 6.562 0 0.52 0.045 1.020 0.154 1.496-5.532-0.266-10.427-2.88-13.715-6.862-0.574 0.982-0.911 2.106-0.911 3.316 0 2.272 1.187 4.286 2.956 5.452-1.069-0.020-2.118-0.326-3.006-0.808 0 0.020 0 0.046 0 0.072 0 3.188 2.306 5.836 5.331 6.446-0.542 0.146-1.132 0.216-1.745 0.216-0.426 0-0.856-0.024-1.26-0.112 0.862 2.598 3.309 4.508 6.218 4.57-2.264 1.746-5.138 2.798-8.25 2.798-0.546 0-1.069-0.024-1.592-0.090 2.948 1.874 6.441 2.944 10.208 2.944 12.245 0 18.939-10 18.939-18.668 0-0.29-0.010-0.57-0.024-0.848 1.321-0.924 2.43-2.078 3.335-3.406z"></path>
</symbol>
<symbol id="icon-instagram" viewBox="0 0 34 32">
<path d="M32.425 9.408c-0.076-1.7-0.355-2.869-0.755-3.882-0.412-1.075-1.046-2.038-1.877-2.838-0.812-0.813-1.794-1.444-2.872-1.844-1.033-0.394-2.213-0.669-3.937-0.744-1.737-0.081-2.289-0.1-6.696-0.1s-4.958 0.019-6.689 0.094c-1.725 0.075-2.91 0.35-3.937 0.744-1.091 0.406-2.067 1.031-2.879 1.85-0.824 0.8-1.464 1.769-1.87 2.832-0.399 1.019-0.678 2.182-0.754 3.882-0.082 1.713-0.102 2.257-0.102 6.601s0.019 4.888 0.095 6.595c0.076 1.7 0.355 2.869 0.755 3.882 0.412 1.075 1.052 2.038 1.877 2.838 0.812 0.813 1.794 1.444 2.872 1.844 1.034 0.394 2.213 0.669 3.938 0.744 1.731 0.075 2.283 0.094 6.689 0.094s4.958-0.019 6.689-0.094c1.724-0.075 2.91-0.35 3.937-0.744 2.181-0.832 3.906-2.532 4.749-4.682 0.399-1.019 0.678-2.182 0.754-3.882 0.076-1.707 0.095-2.251 0.095-6.595s-0.006-4.888-0.082-6.595zM29.503 22.473c-0.070 1.563-0.336 2.407-0.558 2.969-0.545 1.394-1.668 2.5-3.082 3.038-0.571 0.219-1.433 0.481-3.012 0.55-1.712 0.075-2.225 0.094-6.556 0.094s-4.851-0.019-6.556-0.094c-1.585-0.069-2.441-0.331-3.012-0.55-0.704-0.256-1.344-0.663-1.864-1.194-0.539-0.519-0.951-1.144-1.211-1.838-0.222-0.563-0.488-1.413-0.558-2.969-0.076-1.688-0.095-2.194-0.095-6.464s0.019-4.782 0.095-6.464c0.070-1.563 0.336-2.407 0.558-2.969 0.26-0.694 0.672-1.325 1.218-1.838 0.526-0.531 1.16-0.938 1.864-1.194 0.571-0.219 1.433-0.481 3.012-0.55 1.712-0.075 2.226-0.094 6.556-0.094 4.337 0 4.85 0.019 6.556 0.094 1.585 0.069 2.441 0.331 3.012 0.55 0.704 0.256 1.344 0.662 1.864 1.194 0.539 0.519 0.951 1.144 1.211 1.838 0.222 0.563 0.488 1.413 0.558 2.969 0.076 1.688 0.095 2.194 0.095 6.464s-0.019 4.77-0.095 6.458z"></path>
<path d="M16.289 7.783c-4.603 0-8.338 3.682-8.338 8.22s3.735 8.22 8.338 8.22c4.603 0 8.338-3.682 8.338-8.22s-3.735-8.22-8.338-8.22zM16.289 21.336c-2.986 0-5.409-2.388-5.409-5.332s2.422-5.332 5.409-5.332c2.986 0 5.408 2.388 5.408 5.332s-2.422 5.332-5.408 5.332v0z"></path>
<path d="M26.903 7.458c0 1.060-0.872 1.919-1.947 1.919s-1.947-0.859-1.947-1.919c0-1.060 0.872-1.919 1.947-1.919s1.947 0.859 1.947 1.919v0z"></path>
</symbol>
<symbol id="icon-github" viewBox="0 0 32 32">
<path d="M16 2.667c-1.751 0-3.485 0.345-5.102 1.015s-3.088 1.652-4.326 2.89c-2.5 2.501-3.905 5.892-3.905 9.428 0 5.893 3.827 10.893 9.12 12.667 0.667 0.107 0.88-0.307 0.88-0.667v-2.253c-3.693 0.8-4.48-1.787-4.48-1.787-0.613-1.547-1.48-1.96-1.48-1.96-1.213-0.827 0.093-0.8 0.093-0.8 1.333 0.093 2.040 1.373 2.040 1.373 1.16 2.027 3.12 1.427 3.88 1.107 0.12-0.867 0.467-1.453 0.84-1.787-2.96-0.333-6.067-1.48-6.067-6.56 0-1.48 0.507-2.667 1.373-3.613-0.133-0.333-0.6-1.72 0.133-3.52 0 0 1.12-0.36 3.667 1.36 1.053-0.293 2.2-0.44 3.333-0.44s2.28 0.147 3.333 0.44c2.547-1.72 3.667-1.36 3.667-1.36 0.733 1.8 0.267 3.187 0.133 3.52 0.867 0.947 1.373 2.133 1.373 3.613 0 5.093-3.12 6.213-6.093 6.547 0.48 0.413 0.92 1.227 0.92 2.467v3.653c0 0.36 0.213 0.787 0.893 0.667 5.293-1.787 9.107-6.773 9.107-12.667 0-1.751-0.345-3.485-1.015-5.102s-1.652-3.088-2.89-4.326-2.708-2.22-4.326-2.89c-1.618-0.67-3.351-1.015-5.102-1.015z"></path>
</symbol>
<symbol id="icon-figma" viewBox="0 0 24 24">
<path d="M13 12.5c0-0.691 0.279-1.314 0.732-1.768s1.077-0.732 1.768-0.732 1.314 0.279 1.768 0.732 0.732 1.077 0.732 1.768-0.279 1.314-0.732 1.768-1.077 0.732-1.768 0.732-1.314-0.279-1.768-0.732-0.732-1.077-0.732-1.768zM8.5 8c-0.691 0-1.314-0.279-1.768-0.732s-0.732-1.077-0.732-1.768 0.279-1.314 0.732-1.768 1.077-0.732 1.768-0.732h2.5v5zM13 8v-5h2.5c0.691 0 1.314 0.279 1.768 0.732s0.732 1.077 0.732 1.768-0.279 1.314-0.732 1.768-1.077 0.732-1.768 0.732zM11 17v2.5c0 0.691-0.279 1.314-0.732 1.768s-1.077 0.732-1.768 0.732-1.314-0.279-1.768-0.732-0.732-1.077-0.732-1.768 0.279-1.314 0.732-1.768 1.077-0.732 1.768-0.732zM4 12.5c0 1.242 0.505 2.369 1.318 3.182 0.112 0.112 0.23 0.218 0.353 0.318-0.123 0.1-0.241 0.206-0.353 0.318-0.813 0.813-1.318 1.94-1.318 3.182s0.505 2.369 1.318 3.182 1.94 1.318 3.182 1.318 2.369-0.505 3.182-1.318 1.318-1.94 1.318-3.182v-3.258c0.715 0.478 1.575 0.758 2.5 0.758 1.242 0 2.369-0.505 3.182-1.318s1.318-1.94 1.318-3.182-0.505-2.369-1.318-3.182c-0.112-0.112-0.23-0.218-0.353-0.318 0.123-0.1 0.241-0.206 0.353-0.318 0.813-0.813 1.318-1.94 1.318-3.182s-0.505-2.369-1.318-3.182-1.94-1.318-3.182-1.318h-7c-1.242 0-2.369 0.505-3.182 1.318s-1.318 1.94-1.318 3.182 0.505 2.369 1.318 3.182c0.112 0.112 0.23 0.218 0.353 0.318-0.123 0.1-0.241 0.206-0.353 0.318-0.813 0.813-1.318 1.94-1.318 3.182zM6 12.5c0-0.691 0.279-1.314 0.732-1.768s1.077-0.732 1.768-0.732h2.5v5h-2.5c-0.691 0-1.314-0.279-1.768-0.732s-0.732-1.077-0.732-1.768z"></path>
</symbol>
<symbol id="icon-Unionfirst" viewBox="0 0 32 32">
<path   d="M19.514 7.586c0.834-2.875 3.12-5.147 6.028-5.965l0.187-0.003 0.007 0.052-0.007 0.002c0.041 0.321 0.064 0.647 0.069 0.978 0.039 2.726-1.186 5.178-3.136 6.803 0.412 0.381 0.787 0.802 1.119 1.255 1.552-1.524 3.67-2.47 6.010-2.489 0.751-0.006 1.48 0.083 2.177 0.257l0.001-0.002 0.057 0.016 0.001 0.103-0.001-0c-1.203 2.734-3.758 4.735-6.818 5.141 0.169 0.67 0.262 1.371 0.268 2.093 0.001 0.149-0.001 0.298-0.007 0.445 3.399 1.171 5.855 4.399 5.886 8.217 0.003 0.311-0.011 0.619-0.040 0.922l-0.018 0.149-0.186 0.089c-0.383 0.055-0.774 0.085-1.172 0.088-2.904 0.024-5.488-1.384-7.089-3.568-0.205 0.201-0.42 0.392-0.644 0.572-0.332 0.344-0.693 0.662-1.078 0.948 1.535 1.541 2.497 3.652 2.533 5.992 0.012 0.751-0.072 1.481-0.241 2.179l0.002 0.001-0.015 0.057-0.103 0.001 0-0.001c-2.742-1.183-4.763-3.723-5.191-6.781-0.669 0.175-1.369 0.272-2.091 0.284-0.149 0.002-0.298 0.001-0.445-0.004-1.146 3.407-4.356 5.887-8.174 5.946-0.311 0.005-0.619-0.007-0.923-0.033l-0.15-0.017-0.090-0.186c-0.058-0.383-0.091-0.774-0.097-1.171-0.045-2.904 1.344-5.498 3.516-7.115-0.453-0.455-0.857-0.96-1.201-1.506-1.502 1.277-3.439 2.052-5.56 2.067-0.851 0.006-1.675-0.111-2.454-0.335l0.017-0.071-0.455-0.114-0.006-0.061 0.007 0.003c0.224-4.128 3.294-7.503 7.281-8.158 0.102-0.839 0.321-1.642 0.642-2.39-2.995-0.789-5.365-3.143-6.187-6.146l-0.001-0.187 0.052-0.007 0.002 0.007c0.321-0.038 0.648-0.059 0.979-0.062 2.904-0.020 5.486 1.391 7.084 3.578 0.256-0.251 0.527-0.485 0.812-0.703-1.455-1.53-2.359-3.586-2.392-5.857-0.012-0.851 0.099-1.675 0.317-2.456l0.071 0.017 0.11-0.456 0.061-0.007-0.002 0.007c4.067 0.191 7.423 3.147 8.178 7.040 0.335 0.042 0.663 0.102 0.985 0.181 0.521 0.074 1.028 0.195 1.516 0.358zM19.487 7.682c-0.445-0.149-0.906-0.263-1.38-0.337l0 0.013-0.001-0c-0.008 0.017-0.015 0.035-0.023 0.052 0.469 0.111 0.923 0.26 1.359 0.443 0.015-0.057 0.030-0.114 0.046-0.171zM17.985 7.387c0.008-0.018 0.016-0.036 0.024-0.054l-0.029-0.007c-0.242-0.034-0.488-0.059-0.736-0.072 0.251 0.034 0.498 0.079 0.741 0.134zM16.931 7.143c-0.079-0.001-0.158-0.002-0.238-0.001-0.223 0.002-0.443 0.012-0.662 0.030-0.039 0-0.078 0-0.117 0.001-1.881 0.027-3.615 0.641-5.028 1.665-0.022-0.022-0.044-0.044-0.066-0.067 1.414-1.051 3.16-1.678 5.054-1.691 0.357-0.003 0.71 0.017 1.056 0.057 0 0.002 0.001 0.004 0.001 0.006zM16.91 7.035c-0.76-3.842-4.085-6.754-8.107-6.931-0.289 0.879-0.439 1.82-0.425 2.796 0.032 2.25 0.929 4.285 2.372 5.799 1.432-1.068 3.203-1.705 5.122-1.719 0.351-0.002 0.697 0.016 1.037 0.054zM10.74 8.831c-0.289 0.22-0.564 0.458-0.822 0.712 0.015 0.021 0.030 0.043 0.046 0.065 0.265-0.254 0.546-0.491 0.842-0.711-0.022-0.022-0.043-0.044-0.065-0.066zM9.892 9.677c-0.015-0.021-0.030-0.042-0.045-0.064-0.741 0.745-1.347 1.624-1.78 2.598 0.008 0.002 0.015 0.004 0.023 0.006 0.445-0.952 1.058-1.812 1.802-2.54zM8.188 12.241c0.437-0.929 1.035-1.768 1.76-2.481 0.542 0.796 0.955 1.688 1.209 2.646-0.313 0.037-0.632 0.057-0.955 0.059-0.693 0.005-1.368-0.073-2.015-0.224zM8.048 12.309c-0.007-0.002-0.014-0.003-0.021-0.005-0.148 0.343-0.274 0.698-0.377 1.062 0.11-0.363 0.243-0.716 0.398-1.057zM7.233 15.338c0.009-0.191 0.023-0.38 0.044-0.567-3.937 0.66-6.964 4.004-7.173 8.089 0.877 0.295 1.817 0.452 2.793 0.445 2.101-0.015 4.021-0.785 5.507-2.053-0.789-1.284-1.254-2.788-1.279-4.401-0.008-0.515 0.029-1.021 0.108-1.513zM8.48 21.187c-0.775-1.266-1.231-2.748-1.256-4.337-0.003-0.211 0.001-0.42 0.013-0.628 0.093 1.72 0.678 3.306 1.616 4.62-0.121 0.119-0.245 0.234-0.372 0.345zM8.533 21.272c0.345 0.549 0.75 1.056 1.206 1.512 0.179-0.13 0.363-0.254 0.553-0.37-0.515-0.441-0.979-0.942-1.38-1.491-0.123 0.12-0.249 0.236-0.378 0.349zM10.371 22.48c-0.192 0.117-0.379 0.242-0.561 0.374 1.481 1.449 3.483 2.37 5.694 2.464 0.077-0.236 0.144-0.477 0.201-0.721-0.341-0.042-0.676-0.103-1.004-0.183-1.632-0.233-3.12-0.921-4.331-1.933zM15.804 24.608c-0.056 0.242-0.122 0.48-0.197 0.714 0.136 0.004 0.274 0.005 0.411 0.003 0.718-0.011 1.415-0.109 2.080-0.283-0.020-0.157-0.036-0.316-0.048-0.475-0.396 0.059-0.801 0.091-1.213 0.094-0.35 0.003-0.695-0.015-1.034-0.052zM18.044 24.467c-0.394 0.059-0.797 0.091-1.207 0.094-0.342 0.003-0.679-0.014-1.011-0.051 0.001-0.004 0.002-0.007 0.002-0.011 0.055 0.001 0.111 0.001 0.167 0 0.398-0.003 0.789-0.032 1.172-0.087l0.186-0.089 0.019-0.149c0.029-0.303 0.043-0.611 0.041-0.922-0.004-0.592-0.067-1.17-0.182-1.729 0.356 0.099 0.702 0.219 1.038 0.36-0.169 0.698-0.253 1.428-0.241 2.179 0.002 0.136 0.007 0.27 0.016 0.404zM18.149 24.551c0.011 0.156 0.027 0.311 0.046 0.465 1.014-0.279 1.953-0.736 2.78-1.335-0.024-0.023-0.048-0.046-0.072-0.069-0.844 0.459-1.771 0.782-2.755 0.939zM20.828 23.54c-0.824 0.444-1.728 0.757-2.686 0.912-0.008-0.129-0.013-0.26-0.015-0.39-0.012-0.736 0.070-1.453 0.235-2.138 0.915 0.397 1.747 0.946 2.466 1.616zM20.994 23.562c0.021 0.020 0.041 0.040 0.062 0.060 0.177-0.131 0.349-0.269 0.515-0.413-0.187 0.125-0.38 0.243-0.577 0.353zM22.138 22.67c-0.381 0.307-0.789 0.581-1.22 0.82-0.736-0.692-1.592-1.258-2.533-1.664 0.443-1.758 1.431-3.305 2.778-4.449 0.077 1.715 0.643 3.3 1.56 4.619-0.183 0.234-0.379 0.459-0.585 0.674zM22.726 22.152c0.021-0.020 0.042-0.041 0.063-0.062-0.002-0.003-0.004-0.006-0.007-0.009-0.019 0.024-0.038 0.048-0.057 0.071zM22.846 22c0.005 0.007 0.009 0.013 0.014 0.020 1.459-1.471 2.395-3.466 2.506-5.676-0.188-0.063-0.379-0.12-0.573-0.17-0.019 0.586-0.097 1.158-0.228 1.709-0.207 1.533-0.816 2.942-1.72 4.116zM24.797 16.073c0.194 0.050 0.385 0.106 0.574 0.168 0.005-0.136 0.007-0.274 0.006-0.411-0.006-0.718-0.099-1.416-0.268-2.082-0.186 0.022-0.373 0.039-0.562 0.050 0.155 0.629 0.242 1.284 0.251 1.959 0.002 0.106 0.001 0.211-0.001 0.316zM24.446 13.802c0.156 0.627 0.243 1.282 0.253 1.955 0.001 0.097 0.001 0.194-0 0.29-0.027-0.007-0.054-0.013-0.081-0.019-0.011-0.144-0.026-0.288-0.044-0.43l0.007-0.002-0.007-0.052-0.187 0.003c-0.298 0.084-0.59 0.184-0.874 0.298-0.309-0.031-0.623-0.045-0.94-0.043-0.332 0.003-0.66 0.024-0.983 0.063-0.078-0.083-0.154-0.168-0.229-0.255 0.113-0.719 0.315-1.409 0.593-2.058 0.697 0.174 1.426 0.263 2.177 0.257 0.106-0.001 0.211-0.004 0.316-0.008zM24.522 13.7c0.189-0.010 0.376-0.026 0.562-0.048-0.271-1.016-0.721-1.958-1.314-2.79-0.114 0.115-0.225 0.233-0.332 0.354 0.484 0.756 0.853 1.592 1.084 2.485zM23.369 11.293c0.467 0.736 0.825 1.547 1.051 2.412-0.097 0.004-0.194 0.006-0.292 0.007-0.736 0.006-1.452-0.081-2.136-0.25 0.351-0.793 0.817-1.523 1.376-2.169zM23.382 11.129c0.107-0.119 0.216-0.236 0.329-0.349-0.334-0.457-0.711-0.88-1.126-1.262-0.102 0.083-0.207 0.165-0.313 0.244 0.414 0.417 0.786 0.875 1.11 1.368zM22.512 9.45c-0.101 0.082-0.205 0.163-0.31 0.24-0.765-0.753-1.668-1.366-2.668-1.799 0.015-0.060 0.031-0.119 0.047-0.178 1.093 0.38 2.087 0.976 2.931 1.737zM22.589 9.387c-0.857-0.776-1.868-1.382-2.981-1.769 0.83-2.866 3.118-5.126 6.024-5.92 0.039 0.313 0.062 0.631 0.066 0.954 0.039 2.7-1.177 5.128-3.11 6.735zM23.314 11.206c-0.578 0.663-1.058 1.414-1.418 2.231-0.805-0.209-1.564-0.533-2.26-0.952-0.127-0.422-0.223-0.858-0.285-1.306 1.037-0.281 1.996-0.747 2.84-1.359 0.42 0.421 0.796 0.886 1.122 1.386zM19.51 12.407c-0.112-0.39-0.198-0.792-0.255-1.202-0.341 0.088-0.69 0.157-1.045 0.204 0.4 0.372 0.835 0.707 1.3 0.998zM18.083 11.425c0.448 0.425 0.94 0.802 1.47 1.125 0.353 1.151 0.939 2.2 1.703 3.092-0.014 0.092-0.027 0.185-0.038 0.278-2.011 0.333-3.788 1.358-5.083 2.822-0.7-1.148-1.655-2.121-2.786-2.839 1.561-1.061 2.757-2.61 3.369-4.422 0.148 0.005 0.296 0.007 0.445 0.005 0.311-0.004 0.617-0.025 0.919-0.061zM18.117 11.322c0.383-0.047 0.759-0.12 1.125-0.215-0.041-0.321-0.064-0.647-0.069-0.978-0.011-0.751 0.074-1.481 0.244-2.178-0.441-0.186-0.901-0.337-1.376-0.449-0.243 0.524-0.536 1.020-0.873 1.482-0.012 0.379-0.048 0.753-0.107 1.118 0.314 0.439 0.668 0.848 1.057 1.22zM17.037 10.237c0.287 0.393 0.606 0.76 0.953 1.099-0.273 0.030-0.549 0.047-0.829 0.051-0.138 0.002-0.275 0.001-0.412-0.004 0.121-0.372 0.217-0.755 0.287-1.146zM16.979 9.985c0.042-0.283 0.071-0.57 0.085-0.861-0.115 0.151-0.234 0.297-0.358 0.44 0.087 0.143 0.178 0.284 0.273 0.421zM17.070 8.95c-0.133 0.18-0.272 0.355-0.418 0.524-0.397-0.671-0.707-1.401-0.913-2.174 0.1-0.012 0.201-0.022 0.303-0.031 0.31-0 0.617 0.016 0.919 0.048 0.067 0.412 0.105 0.835 0.111 1.265 0.002 0.123 0.001 0.245-0.002 0.367zM17.172 8.809c0.001-0.075 0.001-0.151-0-0.227-0.006-0.426-0.043-0.844-0.108-1.252 0.298 0.035 0.591 0.085 0.879 0.149-0.218 0.468-0.477 0.912-0.771 1.33zM16.956 10.125c-0.072 0.43-0.175 0.849-0.309 1.255-0.593-0.026-1.17-0.111-1.727-0.25 0.635-0.42 1.212-0.921 1.716-1.488 0.101 0.165 0.208 0.326 0.319 0.484zM14.679 11.167c-1.018 0.636-2.179 1.064-3.423 1.226-0.258-0.979-0.681-1.891-1.236-2.703 0.269-0.259 0.555-0.5 0.856-0.722 1.045 1.028 2.349 1.796 3.803 2.2zM14.791 11.096c-1.467-0.391-2.783-1.156-3.835-2.187 1.331-0.961 2.948-1.554 4.704-1.63l0.001 0.112c0.211 0.768 0.524 1.494 0.922 2.162-0.523 0.593-1.126 1.113-1.792 1.543zM14.809 11.202c0.581 0.152 1.186 0.245 1.807 0.274-0.613 1.794-1.805 3.325-3.357 4.369-0.537-0.332-1.113-0.607-1.719-0.817 0.006-0.147 0.009-0.296 0.008-0.445-0.005-0.722-0.097-1.423-0.265-2.094 1.286-0.169 2.483-0.619 3.528-1.287zM13.167 15.906c-0.393-0.24-0.807-0.45-1.238-0.625 0.363 0.227 0.707 0.48 1.032 0.756 0.070-0.043 0.138-0.086 0.207-0.131zM11.397 15.085c0.013 0.007 0.026 0.014 0.039 0.021-0.032 0.609-0.126 1.201-0.276 1.77-0.826 0.274-1.707 0.429-2.624 0.442-0.354 0.005-0.703-0.011-1.046-0.047-0.067-0.412-0.105-0.835-0.111-1.265-0.006-0.428 0.019-0.85 0.074-1.262 0.389-0.057 0.787-0.088 1.191-0.091 0.962-0.007 1.888 0.145 2.753 0.432zM10.891 14.832c-0.718-0.187-1.471-0.284-2.248-0.278-0.396 0.003-0.785 0.032-1.166 0.086 0.049-0.199 0.106-0.395 0.169-0.588 1.154 0.049 2.25 0.323 3.245 0.78zM11.434 14.993c-1.127-0.607-2.403-0.976-3.756-1.038l0.002-0.007-0.061 0.007-0.11 0.456-0.006-0.001c0.126-0.727 0.344-1.424 0.642-2.077 0.66 0.156 1.349 0.236 2.058 0.231 0.331-0.002 0.658-0.023 0.979-0.062 0.169 0.666 0.26 1.364 0.265 2.082 0.001 0.138-0.001 0.275-0.007 0.411-0.002-0.001-0.005-0.002-0.007-0.002zM11.271 16.838c0.139-0.541 0.227-1.103 0.26-1.679 0.476 0.269 0.925 0.581 1.34 0.931-0.502 0.301-1.038 0.552-1.6 0.747zM11.241 16.953c-0.406 1.497-1.196 2.835-2.259 3.9 0.405 0.557 0.875 1.063 1.398 1.507 1.247-0.749 2.698-1.198 4.254-1.245 0.213-0.499 0.47-0.974 0.767-1.42-0.508-1.38-1.36-2.592-2.451-3.537-0.535 0.323-1.107 0.59-1.709 0.794zM11.129 16.99c-0.404 1.449-1.175 2.746-2.205 3.781-0.709-0.998-1.213-2.154-1.45-3.406l0.141 0.017c0.303 0.027 0.611 0.039 0.923 0.034 0.904-0.013 1.775-0.162 2.592-0.426zM15.443 19.811c-0.269 0.411-0.503 0.846-0.7 1.301 0.007-0 0.015-0 0.022-0 0.348-0.005 0.692 0.009 1.030 0.043-0.082-0.462-0.2-0.911-0.352-1.344zM14.593 21.215c-0.368 0.893-0.592 1.86-0.646 2.872l-0.007-0.002 0.006 0.061 0.455 0.113-0.001 0.006c-1.478-0.267-2.826-0.915-3.939-1.838 1.215-0.723 2.623-1.159 4.132-1.212zM14.701 21.212c0.022-0.001 0.044-0.001 0.066-0.001 0.354-0.006 0.703 0.010 1.046 0.046 0.068 0.412 0.106 0.835 0.113 1.265 0.010 0.644-0.051 1.273-0.177 1.878-0.348-0.007-0.692-0.036-1.029-0.083-0.229-0.056-0.455-0.122-0.677-0.196 0.051-1.026 0.28-2.006 0.657-2.909zM15.849 24.401c0.048 0 0.097 0.001 0.145 0 0.43-0.003 0.853-0.038 1.266-0.102 0.039-0.343 0.057-0.692 0.055-1.046-0.004-0.603-0.070-1.191-0.19-1.758-0.393-0.104-0.798-0.18-1.211-0.228 0.066 0.408 0.103 0.826 0.11 1.252 0.010 0.645-0.051 1.275-0.175 1.882zM17.102 21.387c-0.391-0.101-0.793-0.175-1.204-0.221-0.087-0.502-0.217-0.99-0.386-1.458 0.188-0.278 0.391-0.545 0.609-0.799 0.447 0.759 0.782 1.593 0.982 2.478zM17.209 21.416c0.372 0.101 0.734 0.225 1.085 0.372 0.457-1.798 1.477-3.376 2.865-4.535-0.002-0.067-0.003-0.133-0.004-0.2-0.003-0.348 0.014-0.692 0.051-1.030-1.987 0.336-3.741 1.355-5.018 2.808 0.469 0.79 0.817 1.66 1.021 2.585zM21.259 17.298c0.062 1.714 0.618 3.299 1.528 4.617 0.858-1.125 1.445-2.465 1.663-3.922l-0.013 0 0-0.001c-0.809-0.35-1.555-0.819-2.216-1.384-0.337 0.208-0.659 0.439-0.962 0.69zM21.255 17.173c-0.001-0.041-0.002-0.081-0.002-0.122-0.003-0.354 0.015-0.703 0.053-1.046 0.081-0.013 0.163-0.024 0.245-0.035 0.188 0.199 0.386 0.389 0.592 0.569-0.31 0.193-0.606 0.404-0.888 0.633zM21.468 15.882c-0.043-0.047-0.086-0.094-0.128-0.142-0.008 0.054-0.015 0.109-0.022 0.164 0.050-0.008 0.1-0.015 0.15-0.022zM21.674 15.956c0.178 0.185 0.364 0.361 0.557 0.53 0.346-0.21 0.708-0.397 1.084-0.558-0.245-0.019-0.492-0.028-0.742-0.026-0.304 0.002-0.603 0.021-0.898 0.054zM23.525 15.947c-0.423 0.171-0.829 0.375-1.215 0.607 0.643 0.546 1.367 1 2.152 1.341l0.007-0.029c0.057-0.42 0.083-0.85 0.076-1.287-0.002-0.158-0.009-0.314-0.020-0.47-0.326-0.073-0.66-0.128-0.999-0.162zM24.516 16.006c-0.010-0.128-0.024-0.255-0.040-0.381-0.256 0.070-0.508 0.152-0.753 0.245 0.268 0.033 0.533 0.079 0.793 0.136zM24.625 16.132c0.010 0.147 0.016 0.296 0.018 0.445 0.002 0.099 0.001 0.198-0 0.296 0.028-0.239 0.045-0.48 0.053-0.724-0.023-0.006-0.047-0.011-0.070-0.017zM15.728 24.498c-0.006-0-0.011-0-0.017-0 0.006 0.001 0.011 0.001 0.017 0.002 0-0.001 0-0.001 0-0.002zM15.469 19.594c-0.512-1.358-1.356-2.553-2.431-3.49 0.074-0.046 0.148-0.093 0.221-0.141 1.143 0.718 2.106 1.698 2.807 2.857-0.213 0.247-0.412 0.505-0.597 0.775zM21.276 15.513c-0.705-0.841-1.252-1.818-1.596-2.888 0.673 0.395 1.404 0.701 2.176 0.903-0.268 0.627-0.465 1.292-0.581 1.985zM19.339 11.081c-0.039-0.313-0.062-0.631-0.066-0.954-0.011-0.736 0.072-1.453 0.237-2.137 0.977 0.425 1.861 1.025 2.611 1.761-0.828 0.598-1.767 1.054-2.782 1.331zM21.046 23.751c1.524 1.525 2.479 3.615 2.515 5.934 0.012 0.736-0.070 1.453-0.235 2.138-2.707-1.174-4.7-3.687-5.118-6.709 1.036-0.283 1.995-0.75 2.838-1.363zM6.354 31.221c0.343 0.036 0.692 0.051 1.046 0.046 3.765-0.059 6.931-2.497 8.072-5.852-2.231-0.102-4.25-1.037-5.743-2.502-2.155 1.598-3.533 4.167-3.488 7.043 0.007 0.43 0.045 0.853 0.113 1.265zM7.97 12.187c-2.99-0.782-5.352-3.139-6.149-6.144 0.313-0.037 0.632-0.057 0.955-0.059 2.876-0.020 5.434 1.38 7.013 3.549-0.758 0.759-1.378 1.658-1.818 2.654zM23.84 10.791c1.536-1.512 3.633-2.452 5.953-2.471 0.736-0.006 1.452 0.081 2.136 0.25-1.194 2.698-3.721 4.672-6.747 5.069-0.275-1.038-0.735-2-1.342-2.848zM31.202 25.537c0.038-0.343 0.056-0.692 0.053-1.046-0.031-3.765-2.446-6.949-5.793-8.115-0.118 2.23-1.067 4.242-2.544 5.724 1.582 2.166 4.141 3.564 7.017 3.54 0.43-0.003 0.853-0.039 1.266-0.103z"></path>
</symbol>
<symbol id="icon-Unionunion4" viewBox="0 0 38 32">
<path  d="M0.105 8.362c2.217 1.538 5.102 1.783 7.531 0.639 0.204 0.676 0.505 1.331 0.904 1.945-2.284 2.654-2.445 6.605-0.297 9.472l-0.006 0.002 0.038 0.037 0.178-0.086c-0.017 0.020-0.033 0.040-0.050 0.060l-0.067 0.16 0.072 0.102c0.15 0.202 0.313 0.398 0.487 0.587 1.163 1.26 2.678 2.005 4.264 2.229-0.346 0.196-0.677 0.42-0.991 0.671l-0.001-0.001-0.041 0.080 0.037 0.035 0.002-0.001c0.465 0.413 0.989 0.775 1.568 1.072 1.23 0.631 2.554 0.89 3.844 0.818-0.725 1.65-0.822 3.51-0.271 5.204l-0.001 0.001 0.058 0.063 0.044-0.022-0.001-0.002c0.532-0.29 1.038-0.649 1.504-1.080 0.569-0.525 1.037-1.118 1.404-1.753 0.699 1.186 1.729 2.193 3.043 2.866 0.255 0.131 0.515 0.246 0.777 0.345l-0.002 0.006 0.043 0.016 0.074-0.144c0.47-2.165-0.037-4.412-1.333-6.147 1.711-0.057 3.42-0.712 4.787-1.974 0.206-0.19 0.398-0.388 0.577-0.595l0.005 0.004 0.029-0.034-0.076-0.083c1.551-0.54 2.932-1.583 3.878-3.043l0.15-0.011 0.062-0.115c0.118-0.236 0.226-0.48 0.321-0.733 1.17-3.095 0.196-6.473-2.184-8.483 0.051-0.117 0.1-0.236 0.145-0.357 0.221-0.586 0.366-1.181 0.439-1.776 2.6 0.63 5.292-0.187 7.12-2.020l0.001 0.001 0.032-0.084-0.041-0.031-0.002 0.002c-0.509-0.359-1.070-0.659-1.679-0.889-1.897-0.717-3.905-0.616-5.636 0.13-0.61-2.267-2.257-4.214-4.611-5.103-0.268-0.101-0.539-0.186-0.811-0.256l0.001-0.007-0.045-0.011-0.057 0.151c-0.273 2.685 0.909 5.327 3.084 6.9-0.493 0.505-0.921 1.086-1.265 1.732-2.601-0.542-5.264 0.346-7.039 2.233-0.019-0.023-0.038-0.046-0.057-0.068-2.143-2.522-5.57-3.303-8.481-2.193-0.078-0.101-0.159-0.202-0.242-0.3-0.405-0.477-0.857-0.892-1.342-1.243 1.81-1.971 2.396-4.721 1.678-7.208l0.001-0.001-0.058-0.068-0.046 0.021 0.001 0.002c-0.56 0.271-1.095 0.617-1.591 1.039-1.546 1.314-2.428 3.119-2.614 4.996-2.278-0.563-4.779-0.064-6.697 1.566-0.219 0.186-0.424 0.381-0.616 0.586l-0.005-0.004-0.031 0.034 0.105 0.123zM20.043 11.145c-0.021-0.025-0.042-0.051-0.064-0.076-2.113-2.486-5.489-3.262-8.362-2.177 1.161 1.549 1.647 3.414 1.489 5.22 1.228 0.306 2.523 0.299 3.753-0.031 0.293-0.411 0.633-0.799 1.019-1.156 0.426-0.393 0.885-0.728 1.367-1.004 0.072-0.126 0.148-0.249 0.226-0.37l0.074-0.107 0.179 0.007c0.013 0.005 0.026 0.009 0.039 0.014 0.090-0.109 0.183-0.216 0.278-0.32zM19.85 11.496c0.080-0.097 0.163-0.192 0.247-0.284 0.15 0.185 0.289 0.375 0.419 0.57-0.22-0.107-0.442-0.202-0.666-0.286zM19.708 11.535c-0.033-0.012-0.066-0.023-0.099-0.034-0.074 0.11-0.146 0.223-0.215 0.339 0.045-0.024 0.090-0.048 0.135-0.071 0.058-0.079 0.118-0.157 0.179-0.233zM19.625 11.782c0.055-0.073 0.111-0.145 0.168-0.216 0.047 0.017 0.093 0.035 0.14 0.053l-0.305 0.166-0.002-0.004zM19.42 11.918c-0.036 0.020-0.072 0.040-0.108 0.060-0.057 0.1-0.112 0.201-0.165 0.304-0.054 0.105-0.105 0.211-0.154 0.318 0.131-0.237 0.274-0.464 0.427-0.682zM18.733 13.25c-0.006 0.016-0.011 0.032-0.017 0.048 0.015-0.009 0.031-0.018 0.046-0.027l-0.029-0.021zM18.799 13.249c-0.008-0.006-0.016-0.013-0.024-0.019 0.225-0.504 0.499-0.972 0.815-1.4 0.112-0.057 0.224-0.111 0.338-0.162 0.113 0.138 0.221 0.28 0.322 0.425-0.161 0.164-0.33 0.323-0.509 0.475-0.3 0.255-0.615 0.483-0.942 0.682zM18.839 13.325c-0.054 0.033-0.109 0.065-0.163 0.097-0.801 2.489-0.237 5.18 1.39 7.116 1.275-1.701 1.722-3.835 1.313-5.824-0.172-0.051-0.343-0.109-0.514-0.174-0.69-0.261-1.319-0.612-1.88-1.036l0.036-0.052-0.182-0.128zM21.358 14.619c-0.155-0.047-0.309-0.1-0.463-0.158-0.752-0.284-1.43-0.677-2.025-1.155 0.321-0.198 0.631-0.423 0.927-0.674 0.176-0.15 0.344-0.306 0.503-0.468 0.517 0.757 0.869 1.592 1.058 2.455zM21.468 14.741c0.399 2.005-0.060 4.15-1.349 5.861 0.070 0.081 0.141 0.161 0.215 0.239 0.987-1.665 2.525-2.828 4.254-3.373-0.128-0.856-0.403-1.684-0.812-2.445-0.764 0.026-1.542-0.064-2.308-0.283zM23.73 14.939c-0.756 0.022-1.524-0.072-2.282-0.293-0.191-0.895-0.553-1.76-1.090-2.543 0.057-0.060 0.113-0.12 0.168-0.181l0.015-0.032c0.027 0.014 0.054 0.027 0.081 0.041 1.362 0.699 2.417 1.761 3.108 3.009zM23.826 14.936c-0.698-1.279-1.773-2.368-3.165-3.082-0.028-0.014-0.056-0.029-0.085-0.043l0.024-0.052-0.071-0.11c-0.117-0.17-0.241-0.338-0.374-0.501 1.75-1.866 4.375-2.747 6.943-2.221-0.135 0.262-0.257 0.534-0.364 0.817-0.576 1.525-0.633 3.119-0.256 4.583-0.834 0.361-1.733 0.57-2.653 0.608zM23.871 15.020c0.401 0.756 0.671 1.576 0.799 2.423 1.038-0.314 2.144-0.406 3.239-0.252-0.657-0.819-1.136-1.768-1.408-2.78-0.828 0.356-1.718 0.565-2.63 0.608zM27.99 17.29c-1.117-0.172-2.247-0.084-3.307 0.239 0.194 1.389 0.007 2.845-0.615 4.206 1.423-0.060 2.851 0.293 4.089 1.053 1.543-0.525 2.919-1.551 3.864-2.993-0.305-0.073-0.609-0.166-0.91-0.28-1.26-0.476-2.318-1.256-3.122-2.225zM32.071 19.718c-0.311-0.073-0.622-0.168-0.929-0.284-1.213-0.458-2.236-1.201-3.023-2.123 0.723 0.125 1.44 0.36 2.127 0.712 0.753 0.386 1.412 0.883 1.968 1.462-0.046 0.079-0.094 0.157-0.143 0.233zM32.16 19.739c0.039-0.062 0.078-0.125 0.116-0.189l0.004 0.005 0.020-0.049-0.304-0.27 0.042-0.047c-0.509-0.484-1.095-0.904-1.751-1.241-0.726-0.373-1.485-0.615-2.251-0.737-0.682-0.83-1.178-1.798-1.455-2.834 1.657-0.736 3.054-2.064 3.848-3.829 2.339 1.99 3.294 5.319 2.14 8.371-0.108 0.287-0.232 0.563-0.371 0.828-0.013-0.003-0.025-0.006-0.038-0.008zM12.232 24.238c0.337-0.268 0.695-0.505 1.069-0.71 1.288 0.156 2.618-0.032 3.84-0.567 0.078 0.094 0.159 0.186 0.243 0.276 0.405 0.438 0.852 0.814 1.331 1.128-0.453 0.533-0.819 1.116-1.098 1.728-1.289 0.080-2.614-0.174-3.845-0.806-0.568-0.291-1.083-0.646-1.54-1.051zM17.38 31.346c-0.544-1.684-0.441-3.533 0.289-5.17 0.571-0.039 1.134-0.143 1.679-0.308 0.141 0.929 0.452 1.826 0.919 2.641-0.366 0.644-0.837 1.245-1.412 1.775-0.457 0.422-0.953 0.776-1.475 1.061zM23.396 31.381c-1.314-0.674-2.341-1.685-3.033-2.876 0.541-0.966 0.85-2.027 0.923-3.1 0.502 0.097 1.013 0.14 1.524 0.13 1.319 1.737 1.833 4.004 1.342 6.182-0.256-0.097-0.508-0.209-0.757-0.337zM27.647 23.499c-1.367 1.263-3.080 1.911-4.792 1.954-0.267-0.348-0.566-0.674-0.896-0.975 0.547-0.447 1.037-0.975 1.452-1.579 1.574 0.518 3.233 0.486 4.739-0.018 0.020 0.013 0.041 0.025 0.061 0.038-0.175 0.201-0.363 0.395-0.563 0.58zM28.054 22.822c-1.222-0.734-2.627-1.070-4.025-1.003-0.037 0.079-0.076 0.157-0.116 0.235-0.138 0.269-0.289 0.526-0.453 0.771 1.525 0.496 3.131 0.471 4.593-0.002zM24.6 17.554c0.191 1.382-0.001 2.833-0.628 4.185-0.683 0.038-1.364 0.171-2.022 0.4-0.583-0.347-1.104-0.764-1.555-1.234 0.973-1.653 2.493-2.809 4.205-3.351zM23.932 21.824c-0.638 0.039-1.273 0.162-1.888 0.37 0.104 0.060 0.211 0.118 0.319 0.173 0.332 0.17 0.671 0.313 1.014 0.429 0.167-0.248 0.321-0.509 0.461-0.781 0.033-0.063 0.064-0.127 0.095-0.191zM20.35 20.983c0.437 0.452 0.937 0.855 1.496 1.194-0.314 0.115-0.622 0.251-0.922 0.41-0.167-0.495-0.39-0.976-0.67-1.432 0.031-0.058 0.063-0.115 0.095-0.172zM20.289 20.919c-0.029 0.050-0.058 0.101-0.086 0.153-0.066-0.105-0.135-0.208-0.207-0.31 0.024-0.030 0.047-0.059 0.070-0.089 0.072 0.084 0.147 0.166 0.223 0.247zM17.935 12.985c0.386-0.356 0.799-0.664 1.233-0.923-0.033 0.060-0.065 0.12-0.096 0.181-0.188 0.366-0.343 0.741-0.467 1.12-0.517 0.295-1.061 0.522-1.618 0.682 0.276-0.376 0.592-0.732 0.948-1.060zM20.012 20.608c-1.635-1.938-2.217-4.626-1.445-7.125-0.531 0.294-1.089 0.519-1.66 0.674-0.791 1.12-1.234 2.413-1.322 3.723 1.423 0.291 2.767 1.010 3.821 2.152 0.195 0.211 0.375 0.432 0.54 0.659 0.022-0.028 0.044-0.056 0.065-0.084zM20.471 11.855c-0.147-0.071-0.295-0.137-0.444-0.198 0.099 0.122 0.193 0.247 0.282 0.374 0.055-0.058 0.109-0.117 0.163-0.176zM20.104 21.257c0.018-0.034 0.035-0.068 0.053-0.102-0.069-0.11-0.141-0.219-0.216-0.327-0.221 0.271-0.464 0.53-0.728 0.774-0.414 0.383-0.86 0.71-1.328 0.981 0.533 0.071 1.063 0.199 1.583 0.389 0.139-0.583 0.35-1.158 0.635-1.715zM19.158 21.542c-0.438 0.404-0.911 0.746-1.408 1.024-0.282-0.032-0.565-0.048-0.847-0.048-0.975-1.35-1.411-2.962-1.323-4.555 1.403 0.289 2.726 1 3.765 2.125 0.198 0.215 0.381 0.439 0.548 0.67-0.222 0.274-0.467 0.536-0.734 0.783zM17.618 22.639c-0.217-0.021-0.435-0.032-0.652-0.034 0.064 0.086 0.131 0.172 0.2 0.256 0.152-0.068 0.303-0.142 0.452-0.221zM17.087 22.895c-0.078-0.095-0.152-0.192-0.224-0.291-1.197 0.007-2.376 0.303-3.433 0.855 1.229 0.128 2.492-0.058 3.658-0.564zM13.279 23.442c1.079-0.586 2.29-0.906 3.521-0.923-0.964-1.359-1.394-2.975-1.303-4.572-1.389-0.27-2.851-0.128-4.19 0.431-0.249 0.288-0.524 0.561-0.823 0.815-0.562 0.478-1.174 0.858-1.816 1.144l-0.028-0.056c-0.080 0.090-0.158 0.181-0.233 0.273 0.167 0.232 0.349 0.455 0.548 0.67 1.177 1.274 2.717 2.016 4.324 2.218zM19.449 23.057c-0.554-0.203-1.12-0.336-1.689-0.403-0.177 0.098-0.358 0.189-0.541 0.272 0.073 0.086 0.147 0.172 0.225 0.255 0.403 0.436 0.848 0.81 1.324 1.121 0.174-0.201 0.361-0.394 0.561-0.579 0.030-0.222 0.070-0.444 0.12-0.665zM18.838 24.347c0.149-0.171 0.308-0.337 0.475-0.497-0.029 0.249-0.046 0.498-0.050 0.747-0.144-0.078-0.286-0.162-0.425-0.25zM19.411 23.759c-0.039 0.294-0.059 0.589-0.063 0.883 0.447 0.234 0.914 0.418 1.394 0.551 0.163-0.089 0.323-0.183 0.479-0.284 0-0.322-0.021-0.643-0.064-0.962-0.274-0.191-0.564-0.366-0.87-0.523-0.099-0.051-0.199-0.099-0.3-0.145-0.198 0.149-0.391 0.309-0.577 0.48zM19.335 25.783c-0.050-0.361-0.075-0.726-0.073-1.093-0.162-0.087-0.322-0.18-0.479-0.28-0.441 0.518-0.8 1.083-1.074 1.677 0.553-0.041 1.098-0.144 1.626-0.305zM20.637 25.25c-0.443-0.129-0.875-0.3-1.29-0.514 0 0.343 0.024 0.685 0.070 1.022 0.42-0.133 0.828-0.303 1.219-0.508zM19.43 25.843c0.458-0.144 0.902-0.332 1.326-0.56 0.149 0.041 0.298 0.076 0.449 0.107-0.070 1.048-0.368 2.086-0.889 3.033-0.45-0.798-0.75-1.673-0.885-2.579zM21.21 25.306c-0.117-0.024-0.233-0.051-0.349-0.081 0.122-0.068 0.241-0.14 0.359-0.214-0.001 0.098-0.005 0.197-0.010 0.295zM21.292 25.322c0.007-0.122 0.011-0.243 0.012-0.365 0.202-0.132 0.398-0.273 0.588-0.425 0.314 0.285 0.6 0.593 0.857 0.922-0.489 0.005-0.977-0.039-1.457-0.132zM21.827 24.475c-0.169 0.135-0.344 0.262-0.523 0.381-0.002-0.282-0.020-0.563-0.054-0.843 0.202 0.145 0.394 0.3 0.578 0.462zM21.895 24.42c-0.208-0.185-0.429-0.36-0.661-0.524-0.058-0.416-0.152-0.828-0.283-1.23 0.32-0.17 0.65-0.315 0.986-0.435 0.126 0.074 0.255 0.145 0.387 0.213 0.328 0.168 0.663 0.31 1.002 0.426-0.409 0.592-0.893 1.111-1.432 1.55zM20.877 22.706c0.119 0.369 0.207 0.746 0.264 1.126-0.258-0.176-0.53-0.338-0.815-0.484-0.086-0.044-0.173-0.087-0.26-0.128 0.262-0.191 0.532-0.362 0.811-0.515zM20.851 22.627c-0.299 0.163-0.59 0.348-0.87 0.554-0.143-0.064-0.287-0.124-0.431-0.179 0.138-0.58 0.347-1.152 0.631-1.706 0.010-0.019 0.019-0.038 0.029-0.056 0.267 0.443 0.48 0.908 0.641 1.387zM19.53 23.087c0.125 0.048 0.249 0.099 0.372 0.153-0.162 0.123-0.32 0.254-0.474 0.392 0.027-0.182 0.061-0.364 0.102-0.545zM16.784 14.189c-1.211 0.307-2.48 0.307-3.686 0.009-0.144 1.457-0.708 2.871-1.677 4.046 1.311-0.515 2.731-0.64 4.082-0.38 0.089-1.29 0.518-2.564 1.281-3.675zM11.25 18.314c1.025-1.188 1.619-2.64 1.764-4.137-1.464-0.38-2.831-1.2-3.887-2.442-0.196-0.23-0.375-0.468-0.539-0.713-2.248 2.63-2.397 6.536-0.263 9.366 0.058-0.023 0.117-0.047 0.175-0.071 0.182-0.21 0.377-0.412 0.586-0.605 0.655-0.605 1.389-1.071 2.164-1.398zM8.679 20.239c0.146-0.161 0.301-0.317 0.463-0.467 0.602-0.556 1.272-0.993 1.979-1.312-0.213 0.235-0.444 0.458-0.692 0.669-0.543 0.461-1.132 0.831-1.75 1.11zM9.249 7.86c0.213-0.181 0.414-0.372 0.601-0.571-0.745-0.525-1.568-0.901-2.424-1.125-0.078 0.907 0.009 1.829 0.264 2.716 0.549-0.267 1.073-0.607 1.56-1.021zM10.019 1.127c-1.532 1.302-2.404 3.092-2.585 4.951 0.875 0.227 1.715 0.611 2.475 1.148 1.792-1.945 2.375-4.662 1.67-7.12-0.549 0.267-1.073 0.607-1.56 1.021zM11.534 8.923c1.155 1.531 1.641 3.378 1.488 5.167-1.442-0.377-2.789-1.186-3.83-2.411-0.199-0.234-0.38-0.476-0.546-0.725 0.239-0.272 0.5-0.531 0.784-0.772 0.645-0.548 1.356-0.967 2.103-1.259zM9.376 10.117c-0.281 0.239-0.54 0.494-0.777 0.763-0.391-0.605-0.685-1.25-0.884-1.916 0.56-0.271 1.095-0.617 1.591-1.039 0.219-0.186 0.424-0.381 0.616-0.586 0.483 0.349 0.932 0.761 1.335 1.235 0.077 0.091 0.152 0.183 0.225 0.277-0.747 0.295-1.459 0.716-2.105 1.264zM0.107 8.26c2.202 1.552 5.083 1.804 7.505 0.659-0.262-0.907-0.351-1.849-0.27-2.775-2.256-0.562-4.734-0.069-6.634 1.546-0.213 0.181-0.414 0.372-0.601 0.571zM30.185 7.976c0.262 0.099 0.525 0.182 0.79 0.25 0.099-0.906 0.030-1.808-0.188-2.666-0.831 0.371-1.596 0.893-2.25 1.545 0.5 0.351 1.051 0.645 1.648 0.871zM36.45 5.392c-1.88-0.711-3.869-0.608-5.584 0.133 0.225 0.875 0.295 1.797 0.193 2.722 2.569 0.627 5.229-0.177 7.039-1.984-0.5-0.351-1.051-0.645-1.648-0.871zM30.36 10.49c-0.781 1.752-2.162 3.071-3.802 3.802-0.368-1.445-0.311-3.015 0.257-4.518 0.108-0.287 0.232-0.563 0.371-0.828 0.354 0.077 0.707 0.181 1.055 0.313 0.792 0.299 1.502 0.719 2.119 1.232zM28.271 9.178c-0.345-0.13-0.694-0.234-1.044-0.311 0.34-0.635 0.763-1.204 1.249-1.701 0.508 0.359 1.070 0.659 1.679 0.889 0.268 0.101 0.539 0.187 0.811 0.256-0.072 0.591-0.215 1.184-0.435 1.766-0.042 0.112-0.087 0.222-0.134 0.331-0.62-0.511-1.332-0.931-2.125-1.23zM25.412 0.168c-0.293 2.678 0.881 5.322 3.054 6.887 0.667-0.668 1.448-1.202 2.298-1.579-0.6-2.246-2.23-4.176-4.562-5.058-0.262-0.099-0.525-0.182-0.79-0.25z"></path>
</symbol>
<symbol id="icon-Unionunion3" viewBox="0 0 36 32">
<path  d="M30.799 7.641c-2.503-0.543-5.122 0.29-6.838 2.175-0.424-0.519-0.926-0.984-1.5-1.378 1.039-3.158-0.255-6.681-3.181-8.416l0.005-0.004-0.047-0.019-0.256 0.289-0.045-0.040c-0.152 0.16-0.297 0.328-0.436 0.504-0.117-0.159-0.239-0.312-0.366-0.459l-0.14-0.088-0.107 0.051c-0.212 0.11-0.421 0.232-0.625 0.366-2.5 1.649-3.554 4.679-2.843 7.467-0.1 0.059-0.199 0.12-0.296 0.185-0.473 0.312-0.894 0.673-1.261 1.073-1.603-1.888-4.035-2.755-6.36-2.4l-0-0.001-0.068 0.044 0.014 0.045 0.002-0c0.189 0.543 0.449 1.073 0.78 1.576 1.034 1.568 2.581 2.59 4.262 2.986-0.529 1.436-0.578 3.042-0.094 4.551-1.521 0.3-2.858 1.080-3.862 2.169-1.405-1.729-3.587-2.78-5.972-2.641-0.272 0.016-0.539 0.047-0.802 0.092l-0.002-0.006-0.043 0.008 0.009 0.153c0.802 2.433 2.848 4.267 5.343 4.789-0.232 0.629-0.379 1.298-0.427 1.991-3.249 0.706-5.629 3.609-5.639 7.010l-0.006-0.002 0.008 0.050 0.379 0.074-0.011 0.059c0.65 0.151 1.331 0.212 2.031 0.172 1.923-0.112 3.623-0.977 4.837-2.293 0.799 0.984 1.85 1.748 3.046 2.198l0.003 0.027 0.191 0.044c0.060 0.021 0.12 0.041 0.181 0.060l-0.009 0.041c0.291 0.077 0.59 0.136 0.894 0.175 0.538 0.095 1.096 0.13 1.665 0.097 0.327-0.019 0.647-0.060 0.959-0.121l0.149-0.081 0.006-0.078c1.256-0.336 2.372-1.006 3.254-1.906 1.118 1.464 2.781 2.48 4.673 2.751 0.465 0.085 0.946 0.125 1.437 0.115 1.925-0.040 3.658-0.839 4.92-2.108 1.339 1.781 3.479 2.914 5.868 2.865 0.327-0.007 0.649-0.035 0.963-0.085l0.152-0.075 0.014-0.123c0.021-0.25 0.029-0.503 0.023-0.759-0.064-3.141-2.117-5.772-4.925-6.701 0.003-0.121 0.004-0.243 0.002-0.366-0.012-0.594-0.096-1.17-0.242-1.72 2.514-0.364 4.595-2.037 5.558-4.298l0.001 0-0.002-0.085-0.047-0.013-0.001 0.002c-0.575-0.136-1.176-0.202-1.794-0.19-1.925 0.039-3.658 0.839-4.92 2.108-1.003-1.334-2.455-2.304-4.124-2.686 0.562-1.503 0.583-3.105 0.14-4.567 2.203-0.334 4.215-1.681 5.305-3.807 0.124-0.242 0.233-0.489 0.328-0.738l0.006 0.001 0.015-0.041-0.137-0.070zM24.366 30.968c1.636-0.19 3.098-0.938 4.198-2.047-0.85-1.157-1.364-2.581-1.396-4.128-0.006-0.287 0.005-0.57 0.032-0.848-1.519 0.276-2.866 1.037-3.88 2.116 0.781 1.117 1.256 2.47 1.298 3.938 0.007 0.256 0.001 0.509-0.018 0.759l-0.013 0.123-0.152 0.076c-0.023 0.004-0.046 0.008-0.069 0.011zM23.263 26.121c0.767 1.102 1.233 2.435 1.273 3.88 0.008 0.291-0.001 0.578-0.027 0.861-0.339 0.060-0.686 0.096-1.040 0.106-0.409 0.012-0.81-0.012-1.201-0.068-0.3-0.055-0.594-0.129-0.88-0.221 0.066-1.753 0.764-3.348 1.875-4.558zM23.272 25.993c1.030-1.090 2.396-1.858 3.936-2.132 0.074-0.691 0.246-1.354 0.502-1.974-1.702-0.424-3.168-1.461-4.149-2.868-1.074 1.169-2.53 1.982-4.177 2.233 0.15 0.548 0.238 1.124 0.255 1.718 0.003 0.123 0.004 0.245 0.001 0.366 1.473 0.475 2.742 1.417 3.631 2.657zM23.641 18.93c0.031 0.041 0.062 0.081 0.094 0.121 0.384-0.434 0.721-0.922 0.997-1.462 0.113-0.22 0.213-0.443 0.301-0.668-0.041-0.009-0.081-0.017-0.122-0.025l0 0.015-0.001-0c-0.31 0.744-0.741 1.426-1.269 2.019zM24.543 16.834c0.096 0.018 0.192 0.037 0.286 0.059-0.304 0.726-0.724 1.391-1.238 1.972-0.133-0.178-0.256-0.363-0.371-0.552-0.254-0.466-0.459-0.965-0.605-1.488 0.257-0.034 0.519-0.054 0.785-0.059 0.389-0.008 0.771 0.016 1.144 0.069zM24.556 16.753c0.171 0.024 0.339 0.055 0.506 0.091 0.561-1.493 0.581-3.085 0.139-4.537-0.203 0.028-0.407 0.048-0.613 0.059l0.045 0.128-0.037 0.030-0.001-0.006c-0.726 0.416-1.502 0.683-2.291 0.809-0.211 1.129-0.138 2.278 0.188 3.351 0.19-0.021 0.382-0.034 0.576-0.039 0.51-0.014 1.008 0.025 1.49 0.113zM22.515 16.759c0.011-0.001 0.023-0.002 0.034-0.004l0.002 0.115c-0.012-0.037-0.024-0.074-0.036-0.112zM22.433 16.768c0.174 0.554 0.414 1.086 0.717 1.586 0.112 0.205 0.234 0.404 0.364 0.596-1.065 1.165-2.513 1.975-4.152 2.223-0.243-0.849-0.637-1.633-1.151-2.321 1.099-1.127 2.57-1.889 4.221-2.084zM22.408 16.689c-0.323-1.072-0.397-2.22-0.191-3.348-1.294 0.19-2.62 0.002-3.816-0.529-1.209 0.499-2.551 0.668-3.876 0.459 0.092 0.978-0.023 1.96-0.332 2.878l0.029 0.007 0.001 0.024c1.586 0.401 2.968 1.334 3.94 2.606 1.108-1.131 2.586-1.898 4.245-2.098zM13.72 16.155c0.122 0.022 0.242 0.047 0.362 0.075-0.289 0.815-0.734 1.578-1.324 2.238-0.161-0.195-0.314-0.401-0.456-0.617-0.235-0.356-0.433-0.726-0.595-1.104-0.069-0.176-0.131-0.355-0.187-0.537 0.281-0.051 0.568-0.086 0.86-0.103 0.456-0.027 0.904-0.009 1.341 0.048zM13.732 16.075c0.128 0.017 0.256 0.037 0.382 0.061 0.31-0.918 0.425-1.9 0.33-2.878-0.713-0.121-1.42-0.351-2.098-0.699-0.228-0.117-0.447-0.244-0.657-0.381l-0.102-0.070 0.006-0.17c0.035-0.098 0.072-0.196 0.111-0.294-0.045-0.009-0.090-0.019-0.134-0.029-0.516 1.393-0.574 2.947-0.126 4.416l0.022-0.003 0.002 0.006c0.264-0.037 0.532-0.060 0.804-0.068 0.499-0.014 0.987 0.023 1.46 0.108zM11.496 16.131c-0.002-0.006-0.003-0.011-0.005-0.017 0.136-0.019 0.273-0.034 0.411-0.045-0.137 0.017-0.272 0.038-0.406 0.062zM11.591 16.674c-0.061-0.148-0.116-0.297-0.166-0.447-1.512 0.296-2.841 1.072-3.836 2.155 0.534 0.672 0.951 1.443 1.22 2.285 1.511-0.276 2.844-1.028 3.851-2.090-0.446-0.57-0.809-1.211-1.069-1.903zM12.711 18.642c-1.015 1.067-2.357 1.825-3.877 2.104 0.167 0.544 0.272 1.116 0.306 1.709 0.007 0.123 0.011 0.245 0.012 0.366 1.316 0.381 2.484 1.133 3.377 2.142 0.98-0.932 2.222-1.591 3.61-1.849 0.069-0.692 0.236-1.356 0.486-1.978-1.564-0.377-2.933-1.27-3.914-2.495zM12.47 25.020c-0.878-0.993-2.025-1.735-3.318-2.114-0.006 1.838-0.703 3.53-1.855 4.809 0.786 0.971 1.819 1.726 2.996 2.174 0.079-1.902 0.896-3.622 2.177-4.869zM10.374 29.918c0.072-1.89 0.88-3.6 2.15-4.837 0.991 1.147 1.627 2.621 1.722 4.255 0.014 0.248 0.016 0.494 0.006 0.736-0.505 0.131-1.032 0.207-1.575 0.222-0.379 0.011-0.752-0.009-1.116-0.056-0.408-0.073-0.805-0.18-1.187-0.32zM13.371 30.324c0.298-0.024 0.589-0.066 0.875-0.126 0.001-0.013 0.002-0.027 0.002-0.040-0.286 0.073-0.578 0.129-0.877 0.166zM14.334 30.051c0.009-0.237 0.007-0.477-0.007-0.719-0.097-1.654-0.741-3.146-1.745-4.307 0.964-0.918 2.185-1.568 3.548-1.826-0.024 0.279-0.033 0.562-0.025 0.848 0.044 1.547 0.569 2.967 1.428 4.118-0.867 0.888-1.965 1.55-3.199 1.886zM12.767 18.582c0.621-0.669 1.117-1.455 1.45-2.319 1.567 0.399 2.931 1.324 3.889 2.583-0.61 0.638-1.105 1.388-1.449 2.215-1.555-0.371-2.916-1.26-3.889-2.479zM23.215 26.053c-1.125 1.219-1.835 2.83-1.907 4.599l-0.006-0.002 0.005 0.043c-1.474-0.427-2.755-1.324-3.668-2.522 1.19-1.244 1.938-2.914 1.999-4.751 1.452 0.474 2.702 1.407 3.577 2.633zM21.487 30.743l0.197 0.046-0 0.002c-0.066-0.015-0.132-0.031-0.197-0.048zM27.742 21.811c-1.615-0.399-3.017-1.356-3.986-2.66l0.032-0.034-0.001-0.002c0.392-0.442 0.736-0.939 1.018-1.489 0.116-0.226 0.219-0.456 0.308-0.688 1.659 0.377 3.102 1.342 4.095 2.668-0.615 0.633-1.115 1.38-1.466 2.204zM24.554 12.368c0.006 0.024 0.013 0.047 0.019 0.071-0.714 0.412-1.478 0.679-2.255 0.806 0.070-0.352 0.168-0.702 0.294-1.046 0.645 0.146 1.298 0.201 1.942 0.169zM24.56 12.286c0.207-0.010 0.412-0.030 0.616-0.058-0.261-0.824-0.672-1.601-1.218-2.287-0.096 0.109-0.19 0.221-0.28 0.337 0.011 0.016 0.021 0.032 0.032 0.048 0.376 0.57 0.659 1.174 0.853 1.794l-0.054 0.018 0.051 0.147zM23.628 10.344c0.006 0.009 0.011 0.017 0.017 0.026 0.401 0.608 0.695 1.255 0.886 1.918-0.627 0.029-1.263-0.024-1.89-0.165 0.092-0.243 0.199-0.483 0.32-0.719 0.194-0.379 0.418-0.732 0.667-1.060zM23.63 10.208c0.089-0.114 0.181-0.224 0.276-0.331-0.416-0.511-0.909-0.97-1.471-1.359-0.031 0.090-0.063 0.179-0.098 0.268 0.482 0.403 0.919 0.879 1.293 1.422zM22.307 8.863c0.475 0.4 0.905 0.872 1.273 1.41-0.259 0.337-0.491 0.702-0.691 1.094-0.124 0.242-0.233 0.489-0.328 0.738-0.55-0.13-1.094-0.329-1.62-0.598-0.101-0.052-0.2-0.106-0.298-0.161 0.548-0.53 1.020-1.158 1.387-1.874 0.102-0.2 0.195-0.403 0.277-0.608zM22.271 8.732c0.033-0.087 0.065-0.174 0.094-0.261-0.236-0.159-0.483-0.305-0.742-0.438-0.701-0.359-1.433-0.592-2.17-0.706l-0.005 0.014c1.018 0.24 1.987 0.709 2.823 1.391zM19.481 7.249c0.74 0.117 1.475 0.351 2.179 0.712 0.255 0.131 0.499 0.275 0.732 0.43 1.016-3.124-0.272-6.604-3.172-8.31-0.238 0.229-0.461 0.476-0.668 0.741 0.052 0.073 0.104 0.148 0.154 0.224 1.264 1.916 1.477 4.215 0.776 6.204zM18.502 0.886c0.047 0.066 0.093 0.134 0.139 0.203 1.253 1.899 1.461 4.179 0.762 6.149-0.403-0.059-0.806-0.083-1.207-0.074-0.282-0.014-0.566-0.010-0.849 0.011-0.497-1.682-0.375-3.546 0.486-5.226 0.195-0.38 0.42-0.735 0.67-1.063zM18.452 0.817c-0.137-0.188-0.281-0.366-0.432-0.537-0.242 0.121-0.48 0.257-0.712 0.41-2.466 1.626-3.508 4.61-2.816 7.36 0.873-0.5 1.818-0.785 2.772-0.869-0.497-1.697-0.372-3.576 0.496-5.269 0.201-0.392 0.433-0.758 0.693-1.095zM17.041 7.284c-0.871 0.106-1.731 0.385-2.529 0.846 0.011 0.041 0.022 0.082 0.034 0.124 0.764-0.476 1.612-0.805 2.495-0.969zM14.477 8.296c-0.012-0.042-0.024-0.084-0.035-0.126-0.092 0.055-0.183 0.112-0.274 0.171-0.47 0.31-0.889 0.67-1.254 1.068 0.034 0.042 0.069 0.084 0.102 0.126 0.433-0.483 0.926-0.898 1.46-1.239zM13.068 9.601c0.425-0.476 0.909-0.885 1.433-1.223 0.194 0.644 0.484 1.273 0.874 1.864 0.188 0.285 0.393 0.552 0.613 0.801-0.587 0.283-1.202 0.473-1.825 0.575-0.189-0.543-0.449-1.073-0.78-1.576-0.1-0.152-0.206-0.299-0.315-0.441zM12.965 9.595c-0.034-0.043-0.068-0.085-0.103-0.127-0.551 0.616-0.975 1.32-1.264 2.074 0.046 0.010 0.091 0.020 0.137 0.029 0.073-0.175 0.153-0.349 0.241-0.521 0.275-0.536 0.608-1.022 0.988-1.456zM11.817 11.587c0.070-0.168 0.148-0.334 0.232-0.499 0.269-0.525 0.595-1.002 0.967-1.427 0.105 0.137 0.206 0.278 0.303 0.425 0.325 0.493 0.58 1.012 0.767 1.545-0.756 0.114-1.523 0.097-2.269-0.043zM14.436 13.175c-0.697-0.12-1.389-0.347-2.052-0.687-0.259-0.133-0.506-0.279-0.742-0.438 0.044-0.13 0.092-0.26 0.145-0.389 0.764 0.146 1.551 0.163 2.325 0.045 0.163 0.482 0.27 0.975 0.324 1.469zM14.516 13.188c1.291 0.207 2.599 0.052 3.783-0.422-0.837-0.388-1.608-0.946-2.256-1.662-0.596 0.29-1.22 0.485-1.853 0.589 0.165 0.491 0.273 0.992 0.326 1.495zM18.5 12.77c0.762-0.328 1.468-0.788 2.082-1.368 0.105 0.061 0.212 0.119 0.322 0.175 0.529 0.271 1.075 0.471 1.629 0.603-0.13 0.355-0.229 0.716-0.3 1.079-1.264 0.191-2.559 0.017-3.732-0.489zM18.398 12.725c-0.847-0.382-1.628-0.938-2.282-1.657 0.239-0.12 0.473-0.254 0.701-0.405 0.573-0.378 1.071-0.829 1.488-1.333 0.569 0.802 1.311 1.499 2.205 2.029-0.622 0.583-1.339 1.043-2.111 1.366zM18.257 9.264c-0.415 0.505-0.912 0.956-1.485 1.334-0.232 0.153-0.469 0.289-0.712 0.41-0.223-0.25-0.43-0.52-0.62-0.808-0.39-0.592-0.679-1.22-0.871-1.865 0.832-0.523 1.766-0.867 2.736-1.013 0.217 0.688 0.537 1.343 0.951 1.942zM18.358 9.266c0.454-0.562 0.81-1.188 1.063-1.851 1.018 0.238 1.987 0.709 2.821 1.393-0.084 0.211-0.178 0.419-0.284 0.625-0.367 0.715-0.838 1.341-1.387 1.868-0.9-0.529-1.644-1.229-2.213-2.036zM18.311 9.198c-0.401-0.583-0.711-1.22-0.923-1.888 0.278-0.038 0.559-0.061 0.842-0.066 0.375 0.020 0.747 0.072 1.114 0.153-0.247 0.645-0.593 1.253-1.032 1.801zM19.267 7.301c0.035 0.007 0.069 0.015 0.104 0.022l0.003-0.008c-0.036-0.005-0.071-0.010-0.107-0.015zM30.834 7.732c-2.495-0.561-5.114 0.265-6.822 2.148 0.559 0.7 0.979 1.494 1.245 2.336 2.183-0.327 4.177-1.66 5.257-3.766 0.121-0.236 0.228-0.476 0.32-0.719zM11.521 11.524c-1.666-0.389-3.2-1.401-4.224-2.955-0.325-0.493-0.58-1.012-0.767-1.545 2.298-0.346 4.7 0.514 6.282 2.382-0.564 0.628-0.996 1.348-1.29 2.118zM8.729 20.682c-0.256 0.044-0.517 0.074-0.782 0.089-0.605 0.035-1.197-0.007-1.766-0.118 0.314-0.819 0.776-1.567 1.353-2.21 0.521 0.659 0.93 1.415 1.195 2.239zM7.246 27.65c1.139-1.268 1.826-2.946 1.826-4.767-0.733-0.206-1.512-0.295-2.314-0.248-0.353 0.020-0.699 0.067-1.036 0.137-0.017 0.283-0.018 0.571-0.001 0.862 0.089 1.523 0.647 2.907 1.525 4.017zM5.64 22.79c-0.016 0.279-0.016 0.562 0 0.849 0.090 1.545 0.658 2.948 1.551 4.073-1.2 1.306-2.885 2.164-4.79 2.275-0.802 0.047-1.581-0.043-2.314-0.248-0-3.365 2.345-6.24 5.553-6.949zM5.727 22.688c0.333-0.068 0.676-0.114 1.026-0.134 0.803-0.047 1.583 0.041 2.318 0.245-0.001-0.112-0.005-0.225-0.012-0.338-0.034-0.59-0.139-1.159-0.306-1.7-0.262 0.045-0.53 0.076-0.802 0.092-0.617 0.036-1.22-0.008-1.799-0.122-0.229 0.618-0.375 1.276-0.425 1.957zM6.101 20.637c-2.49-0.516-4.53-2.354-5.312-4.789 0.256-0.044 0.517-0.074 0.782-0.089 2.363-0.138 4.523 0.905 5.912 2.62-0.591 0.656-1.062 1.421-1.382 2.258zM30.366 21.955c-0.257 0.034-0.519 0.054-0.785 0.060-0.606 0.012-1.196-0.052-1.76-0.184 0.345-0.806 0.834-1.536 1.435-2.157 0.496 0.678 0.876 1.449 1.109 2.282zM29.315 19.614c1.248-1.26 2.965-2.054 4.873-2.093 0.606-0.012 1.196 0.052 1.76 0.184-0.955 2.232-3.014 3.881-5.5 4.238-0.237-0.851-0.625-1.638-1.133-2.33zM35.52 31.673c0.028-0.283 0.039-0.57 0.033-0.861-0.064-3.097-2.082-5.693-4.847-6.618-0.075 1.836-0.836 3.501-2.035 4.735 1.323 1.766 3.442 2.89 5.809 2.842 0.354-0.007 0.701-0.041 1.040-0.098zM28.621 28.863c1.186-1.224 1.936-2.875 2.004-4.695-0.725-0.233-1.5-0.352-2.303-0.335-0.354 0.007-0.701 0.040-1.040 0.098-0.028 0.283-0.040 0.57-0.033 0.861 0.031 1.525 0.537 2.929 1.372 4.072zM27.291 23.846c0.336-0.056 0.68-0.088 1.030-0.095 0.804-0.016 1.581 0.101 2.307 0.332 0.003-0.112 0.003-0.225 0.001-0.339-0.012-0.591-0.095-1.164-0.242-1.71-0.264 0.035-0.532 0.056-0.805 0.062-0.618 0.013-1.219-0.054-1.793-0.19-0.253 0.609-0.423 1.261-0.498 1.94zM18.498 21.25c0.265-0.008 0.527-0.030 0.784-0.065-0.24-0.832-0.625-1.599-1.127-2.274-0.596 0.625-1.080 1.359-1.419 2.168 0.565 0.128 1.155 0.188 1.761 0.171zM19.558 23.395c-0.055 1.82-0.792 3.477-1.968 4.71-0.844-1.136-1.361-2.536-1.404-4.061-0.008-0.291 0.001-0.578 0.027-0.861 0.339-0.060 0.686-0.096 1.040-0.106 0.803-0.023 1.579 0.090 2.305 0.317zM17.251 22.996c-0.35 0.010-0.694 0.045-1.029 0.103 0.070-0.68 0.236-1.333 0.483-1.944 0.576 0.132 1.177 0.193 1.795 0.176 0.272-0.008 0.541-0.031 0.804-0.068 0.15 0.545 0.238 1.117 0.255 1.708 0.003 0.113 0.004 0.226 0.002 0.339-0.729-0.225-1.506-0.337-2.31-0.314z"></path>
</symbol>
<symbol id="icon-Unionunion2" viewBox="0 0 34 32">
<path  d="M20.223 0.154c0.371 2.551 2.081 4.726 4.463 5.677-0.339 0.583-0.601 1.22-0.769 1.899-3.343 0.135-6.207 2.598-6.809 5.968l-0.006-0.003-0.001 0.051-0.030 0.005 0.007-0.006-0.024-0.122c-0.056-0.246-0.126-0.491-0.209-0.735-1.021-2.992-3.793-4.888-6.769-4.922-0.034-0.117-0.070-0.235-0.11-0.352-0.193-0.566-0.449-1.093-0.757-1.575 2.299-1.117 3.785-3.357 4.017-5.819l0.001-0-0.027-0.081-0.049 0.002-0 0.002c-0.593 0.045-1.189 0.165-1.778 0.366-1.834 0.626-3.251 1.922-4.074 3.524-1.828-1.299-4.226-1.732-6.502-0.955-0.259 0.089-0.511 0.19-0.753 0.305l-0.003-0.005-0.039 0.019 0.050 0.146c1.432 2.144 3.91 3.372 6.47 3.208-0.056 0.672-0.018 1.36 0.122 2.046-2.936 1.546-4.463 4.958-3.605 8.235l-0.068 0.059 0.018 0.118c0.043 0.237 0.099 0.473 0.168 0.709 0.848 2.893 3.451 4.802 6.343 4.941 0.027 0.113 0.057 0.227 0.090 0.34 0.16 0.547 0.383 1.059 0.659 1.531-2.29 0.984-3.843 3.068-4.188 5.409l-0.001 0 0.023 0.078 0.047-0 0-0.002c0.579-0.022 1.164-0.115 1.746-0.285 1.814-0.531 3.255-1.717 4.132-3.217 0.188 0.143 0.382 0.276 0.584 0.399l-0.021 0.077 0.041 0.025 0.001-0.002c0.515 0.297 1.076 0.533 1.675 0.698 1.454 0.401 2.927 0.325 4.255-0.135 0.166-0.055 0.328-0.116 0.487-0.182l0.003 0.005 0.039-0.017-0.003-0.011c0.194-0.085 0.384-0.178 0.57-0.279 0.779 2.103 2.518 3.81 4.836 4.45 0.264 0.073 0.529 0.13 0.794 0.172l-0 0.007 0.043 0.006 0.041-0.149c0.024-2.578-1.333-4.988-3.541-6.293 0.425-0.524 0.781-1.114 1.051-1.759 3.324 0.378 6.532-1.617 7.642-4.855l0.005 0.004 0.009-0.050-0.337-0.193 0.030-0.052c-0.57-0.354-1.2-0.633-1.879-0.821-1.868-0.515-3.769-0.242-5.351 0.619-0.612-1.651-1.816-3.059-3.427-3.897 1.878 0.184 3.665-0.376 5.065-1.445 1.092 1.959 3.071 3.38 5.46 3.657 0.327 0.038 0.652 0.053 0.972 0.047l0.162-0.054 0.030-0.121c0.055-0.246 0.097-0.498 0.127-0.754 0.364-3.141-1.324-6.044-3.997-7.353 0.020-0.121 0.037-0.242 0.052-0.365 0.069-0.594 0.064-1.18-0.006-1.748 2.556-0.021 4.86-1.404 6.128-3.527l0.001 0 0.010-0.085-0.045-0.019-0.001 0.002c-0.555-0.214-1.145-0.362-1.762-0.434-1.925-0.223-3.762 0.338-5.193 1.431-1.092-1.959-3.071-3.38-5.46-3.657-0.272-0.032-0.543-0.047-0.811-0.048l-0.001-0.006-0.044 0.001-0.018 0.154zM19.338 14.372c0.032 0.004 0.064 0.008 0.095 0.012 1.908 0.221 3.727-0.336 5.144-1.422-0.689-1.27-1.008-2.76-0.829-4.307 0.033-0.287 0.083-0.567 0.147-0.841-3.302 0.144-6.126 2.585-6.712 5.919l0.007-0.001c0.318 0.043 0.636 0.108 0.953 0.195 0.418 0.115 0.816 0.265 1.194 0.446zM17.44 13.852c0.227 0.039 0.455 0.090 0.682 0.153 0.318 0.088 0.624 0.196 0.919 0.322-0.561-0.097-1.097-0.258-1.601-0.475zM17.328 13.834l0.135 0.052-0.021 0.056c0.585 0.249 1.213 0.423 1.873 0.51 1.698 0.815 2.964 2.259 3.593 3.964-1.512 0.846-2.724 2.232-3.324 3.982-1.549-1.089-2.598-2.759-2.925-4.614 0.292-1.006 0.357-2.086 0.153-3.165 0.078-0.282 0.171-0.555 0.279-0.819 0.079 0.010 0.158 0.021 0.237 0.033zM26.534 6.214c0.265 0.031 0.529 0.046 0.79 0.048-0.119-0.863-0.393-1.683-0.794-2.427-0.684 0.537-1.271 1.198-1.726 1.955 0.545 0.209 1.124 0.354 1.73 0.424zM31.739 2.362c-1.908-0.221-3.727 0.336-5.144 1.422 0.412 0.759 0.691 1.596 0.811 2.477 2.527-0.017 4.805-1.38 6.062-3.476-0.544-0.209-1.124-0.354-1.729-0.424zM31.288 15.8c-0.034 0.291-0.084 0.576-0.151 0.854-0.346 0.011-0.697-0.003-1.051-0.044-2.366-0.274-4.326-1.684-5.404-3.626 1.365-1.067 2.35-2.623 2.675-4.444 2.63 1.3 4.289 4.163 3.93 7.26zM27.282 8.503c-0.317 1.805-1.289 3.349-2.639 4.408-0.677-1.253-0.99-2.722-0.813-4.247 0.034-0.291 0.084-0.576 0.151-0.854 0.346-0.011 0.697 0.003 1.051 0.044 0.803 0.093 1.559 0.317 2.25 0.648zM25.041 7.773c-0.35-0.041-0.697-0.055-1.040-0.046 0.168-0.667 0.427-1.293 0.761-1.866 0.555 0.214 1.145 0.362 1.762 0.434 0.272 0.032 0.543 0.048 0.811 0.048 0.071 0.565 0.076 1.147 0.008 1.738-0.013 0.113-0.029 0.226-0.047 0.337-0.693-0.329-1.451-0.552-2.255-0.646zM20.296 0.088c0.351 2.55 2.054 4.726 4.432 5.671 0.462-0.774 1.063-1.45 1.763-1.998-1.078-1.942-3.038-3.351-5.404-3.626-0.265-0.031-0.529-0.046-0.79-0.048zM12.711 27.092c1.585 0.942 3.551 1.254 5.478 0.71 0.271-0.079 0.536-0.175 0.794-0.285-0.703-1.161-1.733-2.067-2.935-2.632-1.29 0.402-2.453 1.166-3.337 2.207zM19.609 27.214c-0.184 0.1-0.373 0.193-0.565 0.277l-0.015-0.051c-0.695-1.132-1.699-2.020-2.869-2.588 0.961-0.282 1.99-0.364 3.026-0.21-0.016 0.889 0.132 1.76 0.423 2.573zM19.188 24.559c-1.076-0.158-2.144-0.065-3.138 0.241-0.97-0.45-2.048-0.682-3.156-0.653 0.087-0.64 0.084-1.298-0.019-1.957 1.824-0.853 3.152-2.416 3.732-4.236 0.362 1.822 1.415 3.455 2.949 4.526-0.038 0.116-0.074 0.234-0.107 0.353-0.159 0.576-0.244 1.156-0.261 1.728zM16.628 17.597c0.235-0.894 0.29-1.843 0.136-2.794-0.234 0.942-0.271 1.888-0.136 2.794zM16.575 17.785c-0.179-1.024-0.14-2.103 0.154-3.173-0.015-0.078-0.031-0.156-0.049-0.234-0.745-0.030-1.508 0.060-2.265 0.281-1.797 0.527-3.224 1.703-4.091 3.191 1.095 0.854 1.938 2.040 2.356 3.465 0.077 0.264 0.138 0.529 0.182 0.794 1.841-0.868 3.168-2.469 3.714-4.324zM16.973 13.874c-0.073 0.186-0.139 0.377-0.197 0.572-0.005-0.022-0.009-0.043-0.014-0.065l0.006 0-0.018-0.045-0.378 0.015-0.002-0.057c-0.188 0.001-0.377 0.009-0.566 0.025 0.084-0.025 0.167-0.052 0.251-0.081 0.312-0.106 0.611-0.232 0.898-0.375l0.041-0.040-0.021 0.050zM12.64 27.050c0.876-1.035 2.023-1.8 3.298-2.215-0.942-0.424-1.985-0.64-3.055-0.61-0.126 0.854-0.413 1.674-0.837 2.418 0.191 0.146 0.389 0.281 0.594 0.407zM14.341 14.599c-1.722 0.146-3.415-0.341-4.787-1.316-0.667 1.299-1.724 2.396-3.077 3.099 1.388 0.095 2.704 0.597 3.784 1.419 0.869-1.486 2.291-2.663 4.080-3.202zM6.314 16.373c1.402-0.693 2.494-1.809 3.173-3.138-1.168-0.85-2.096-2.058-2.599-3.533-0.093-0.273-0.169-0.548-0.229-0.823-2.879 1.528-4.379 4.875-3.552 8.096 0.282-0.124 0.575-0.231 0.879-0.32 0.778-0.228 1.563-0.317 2.329-0.283zM3.127 17.053c0.282-0.125 0.576-0.233 0.88-0.322 0.719-0.211 1.445-0.302 2.154-0.285-0.228 0.106-0.464 0.201-0.708 0.284-0.765 0.261-1.544 0.384-2.311 0.382-0.005-0.020-0.011-0.040-0.016-0.059zM3.052 17.087l0.007 0.025-0.006-0 0.021 0.046 0.387-0.030 0.005 0.060c0.671-0.029 1.348-0.152 2.015-0.38 0.297-0.101 0.583-0.22 0.858-0.355 1.425 0.070 2.78 0.575 3.883 1.418-0.827 1.452-1.131 3.189-0.742 4.909-2.85-0.147-5.413-2.032-6.248-4.884-0.079-0.268-0.14-0.537-0.184-0.806l0.005-0.002zM8.353 6.302c0.253-0.086 0.498-0.186 0.734-0.297-0.478-0.728-1.078-1.351-1.761-1.85-0.387 0.779-0.633 1.628-0.718 2.507 0.582-0.045 1.167-0.164 1.744-0.361zM11.397 0.586c-1.818 0.62-3.221 1.906-4.033 3.495 0.698 0.508 1.31 1.144 1.798 1.888 2.274-1.101 3.745-3.312 3.979-5.744-0.582 0.045-1.167 0.164-1.744 0.361zM16.766 12.914c0.095 0.277 0.171 0.556 0.231 0.836-0.308 0.159-0.63 0.297-0.968 0.412-2.254 0.769-4.63 0.339-6.438-0.951 0.773-1.55 0.995-3.378 0.506-5.162 2.934 0.043 5.662 1.915 6.669 4.866zM10.012 8.047c0.49 1.766 0.275 3.578-0.488 5.114-1.15-0.84-2.064-2.032-2.559-3.485-0.095-0.277-0.171-0.556-0.231-0.836 0.308-0.159 0.63-0.296 0.968-0.412 0.765-0.261 1.544-0.384 2.311-0.382zM7.675 8.352c-0.334 0.114-0.654 0.25-0.958 0.406-0.135-0.675-0.171-1.351-0.115-2.013 0.593-0.045 1.189-0.165 1.778-0.366 0.259-0.089 0.511-0.19 0.753-0.305 0.307 0.479 0.562 1.003 0.754 1.566 0.037 0.108 0.071 0.216 0.103 0.325-0.768 0-1.548 0.125-2.314 0.386zM0.088 3.452c1.413 2.151 3.886 3.385 6.439 3.216 0.085-0.898 0.336-1.766 0.733-2.561-1.808-1.29-4.184-1.72-6.438-0.951-0.253 0.086-0.498 0.185-0.734 0.297zM11.089 24.509c-0.25 0.073-0.493 0.159-0.728 0.257 0.43 0.712 0.982 1.328 1.622 1.829 0.414-0.729 0.694-1.532 0.819-2.367-0.568 0.022-1.142 0.114-1.713 0.281zM7.852 29.854c1.797-0.526 3.224-1.703 4.091-3.191-0.654-0.51-1.219-1.139-1.656-1.867-2.265 0.969-3.802 3.026-4.148 5.339 0.568-0.022 1.142-0.114 1.713-0.281zM9.561 22.783c-0.391-1.703-0.094-3.425 0.723-4.864 1.077 0.843 1.908 2.014 2.319 3.419 0.079 0.268 0.14 0.537 0.184 0.806-0.307 0.14-0.627 0.26-0.961 0.358-0.757 0.222-1.52 0.311-2.265 0.281zM11.848 22.576c0.33-0.097 0.648-0.215 0.952-0.353 0.099 0.649 0.1 1.296 0.014 1.925-0.579 0.022-1.164 0.115-1.746 0.285-0.257 0.075-0.506 0.163-0.747 0.264-0.275-0.468-0.498-0.978-0.657-1.522-0.031-0.105-0.059-0.209-0.084-0.314 0.746 0.027 1.511-0.063 2.269-0.285zM19.267 24.654c0.258 0.041 0.516 0.097 0.774 0.168 0.588 0.162 1.138 0.394 1.644 0.684-0.565 0.678-1.246 1.242-2.004 1.668-0.283-0.797-0.428-1.649-0.414-2.52zM22.936 18.494c-1.496 0.84-2.693 2.216-3.283 3.952 0.632 0.433 1.345 0.77 2.125 0.985 0.344 0.095 0.688 0.162 1.032 0.205 0.108-0.265 0.202-0.538 0.28-0.821 0.408-1.48 0.324-2.979-0.153-4.321zM22.893 23.645c0.106-0.261 0.198-0.531 0.274-0.809 0.414-1.502 0.327-3.023-0.159-4.383 1.566-0.856 3.449-1.129 5.301-0.618 0.779 0.215 1.493 0.552 2.125 0.985-1.089 3.207-4.255 5.187-7.541 4.824zM22.776 23.714c-0.34-0.043-0.681-0.11-1.021-0.204-0.781-0.215-1.495-0.552-2.13-0.983-0.035 0.107-0.068 0.216-0.098 0.326-0.158 0.574-0.242 1.15-0.259 1.719 0.265 0.042 0.529 0.099 0.794 0.172 0.599 0.165 1.16 0.402 1.675 0.698 0.418-0.515 0.77-1.094 1.038-1.728zM21.757 25.548c2.205 1.298 3.555 3.709 3.511 6.283-0.258-0.041-0.516-0.097-0.774-0.168-2.296-0.633-4.017-2.327-4.785-4.41 0.776-0.434 1.472-1.010 2.048-1.704z"></path>
</symbol>
<symbol id="icon-logo" viewBox="0 0 30 32">
<path  d="M9.106 0.438c1.484 0 2.664 0.401 3.54 1.203 0.421 0.385 0.631 0.684 0.631 0.898 0 0.107-0.099 0.225-0.298 0.353-0.187 0.118-0.345 0.176-0.473 0.176-0.117 0-0.257-0.086-0.421-0.257-0.152-0.171-0.327-0.358-0.526-0.561-0.187-0.214-0.502-0.406-0.946-0.577s-1.005-0.257-1.682-0.257c-0.666 0-1.309 0.182-1.928 0.545-0.608 0.364-1.104 0.829-1.49 1.395-0.386 0.556-0.713 1.187-0.981 1.893-0.479 1.272-0.719 2.593-0.719 3.961 0 1.198 0.286 2.203 0.859 3.015 0.292 0.417 0.689 0.748 1.192 0.994 0.514 0.235 1.104 0.353 1.77 0.353 1.402 0 2.565-0.46 3.488-1.379 0.035-0.032 0.111-0.118 0.228-0.257 0.21-0.278 0.391-0.417 0.543-0.417s0.286 0.048 0.403 0.144c0.117 0.086 0.175 0.182 0.175 0.289s-0.041 0.219-0.123 0.337c-0.537 0.77-1.227 1.358-2.068 1.764-0.83 0.396-1.753 0.593-2.769 0.593-1.764 0-3.055-0.503-3.873-1.508s-1.227-2.342-1.227-4.010c0-2.096 0.491-4.010 1.472-5.742 0.491-0.887 1.186-1.599 2.086-2.133 0.9-0.545 1.945-0.818 3.137-0.818z"></path>
<path  d="M15.432 12.291c0.724 0 1.285 0.232 1.682 0.695 0.405 0.463 0.608 1.030 0.608 1.7 0 0.884-0.288 1.636-0.865 2.256-0.569 0.613-1.309 0.92-2.22 0.92-0.724 0-1.285-0.225-1.682-0.674-0.389-0.456-0.592-1.019-0.608-1.689 0-0.777 0.238-1.49 0.713-2.138 0.241-0.321 0.565-0.577 0.97-0.77 0.413-0.2 0.88-0.299 1.402-0.299zM13.8 13.36c-0.327 0.257-0.015 0.739-0.155 1.103-0.14 0.356-0.362 0.587-0.362 1.057 0 0.463 0.121 0.859 0.362 1.187s0.631 0.492 1.168 0.492c0.545 0 1.016-0.239 1.414-0.716s0.596-1.016 0.596-1.615c0-0.599-0.1-0.723-0.349-1.059-0.352-0.322-0.772-0.322-1.24-0.322-0.46 0-1.107-0.391-1.434-0.127z"></path>
<path  d="M26.647 7.98h-5.527c-0.221 0-0.407 0.164-0.435 0.383l-1.003 7.909c-0.234 1.978-0.894 3.224-1.98 3.737-0.432 0.214-3.282 0.144-3.901 0.144s-1.157-0.636-1.706-0.882c-0.561-0.235-0.841-0.449-0.841-0.642 0-0.093-0.268-0.328-0.19-0.439 0.141-0.203 0.42-0.397 0.666-0.367 0.078 0.010 0.161 0.052 0.226 0.052 0.012 0 0.093 0.053 0.245 0.16 0.152 0.118 0.38 0.23 0.684 0.337 0.304 0.118 0.578 0.69 0.917 0.69 0.327 0 2.914 0.144 3.113 0.080 0.21-0.064 0.403-0.198 0.578-0.401s0.315-0.438 0.421-0.706c0.117-0.257 0.234-0.636 0.351-1.139 0.152-0.695 0.345-1.946 0.578-3.753l0.592-4.711c0.031-0.247-0.15-0.471-0.398-0.491l-4.883-0.411c-0.152 0-0.269-0.048-0.351-0.144s-0.123-0.208-0.123-0.337c0-0.139 0.058-0.273 0.175-0.401s0.239-0.192 0.368-0.192l4.989 0.414c0.234 0.019 0.442-0.149 0.471-0.383l0.176-1.411c0.199-1.679 0.59-2.849 1.174-3.512 0.537-0.599 1.285-0.898 2.243-0.898 0.526 0 1.028 0.059 1.507 0.176s0.719 0.246 0.719 0.385c0 0.16-0.064 0.342-0.193 0.545s-0.269 0.305-0.421 0.305c-0.012 0-0.082-0.027-0.21-0.080-0.386-0.15-0.8-0.225-1.244-0.225-0.432 0-0.777 0.075-1.034 0.225-0.245 0.15-0.438 0.321-0.578 0.513-0.129 0.192-0.245 0.47-0.351 0.834-0.128 0.428-0.245 1.042-0.351 1.844l-0.162 1.22c-0.035 0.263 0.17 0.496 0.435 0.496h5.378c0.269 0 0.403 0.16 0.403 0.481 0 0.139-0.053 0.273-0.158 0.401s-0.228 0.192-0.368 0.192z"></path>
<path  d="M24.916 9.743c0-0.178-0.062-0.314-0.187-0.406-0.117-0.1-0.272-0.15-0.467-0.15-0.421 0-0.857 0.178-1.308 0.535-0.452 0.349-0.732 0.82-0.841 1.411 0.724 0 1.371-0.132 1.939-0.396 0.576-0.264 0.864-0.595 0.864-0.994zM21.119 11.753c0-0.52 0.105-0.994 0.315-1.422s0.475-0.766 0.795-1.016c0.67-0.513 1.363-0.77 2.080-0.77 0.428 0 0.779 0.096 1.052 0.289 0.273 0.185 0.409 0.453 0.409 0.802 0 0.627-2.816 1.432-1.075 1.54-0.709 0.392-1.585 0.588-2.629 0.588 0 0.535 0.136 0.952 0.409 1.251 0.273 0.292 0.666 0.438 1.18 0.438 0.242 0 0.475-0.046 0.701-0.139s0.405-0.189 0.537-0.289l0.199-0.139c0.086 0 0.16 0.053 0.222 0.16s-0.619 0.483-0.619 0.59c0 0.128 0.506 0.016 0.093 0.201-0.405 0.185-0.798 0.278-1.18 0.278-0.81 0-1.429-0.203-1.858-0.609-0.421-0.413-0.631-0.998-0.631-1.754z"></path>
<path d="M29.613 9.743c0-0.178-0.062-0.314-0.187-0.406-0.117-0.1-0.273-0.15-0.468-0.15-0.421 0-0.857 0.178-1.308 0.535-0.452 0.349-0.732 0.82-0.841 1.411 0.724 0 1.371-0.132 1.939-0.396 0.576-0.264 0.865-0.595 0.865-0.994zM25.816 11.753c0-0.52 0.105-0.994 0.315-1.422s0.475-0.766 0.795-1.016c0.67-0.513 1.363-0.77 2.080-0.77 0.428 0 0.779 0.096 1.051 0.289 0.273 0.185 0.409 0.453 0.409 0.802 0 0.627-2.533 1.377-1.075 1.54-0.709 0.392-1.585 0.588-2.629 0.588 0 0.535 0.136 0.952 0.409 1.251 0.272 0.292 0.666 0.438 1.18 0.438 0.241 0 0.475-0.046 0.701-0.139s0.405-0.189 0.537-0.289l0.199-0.139c0.086 0 0.16 0.053 0.222 0.16s-0.584 0.353-0.584 0.46c0 0.128 0.471 0.146 0.058 0.331-0.405 0.185-0.798 0.278-1.18 0.278-0.81 0-1.429-0.203-1.858-0.609-0.421-0.413-0.631-0.998-0.631-1.754z"></path>
<path d="M0.158 25.568c0.32 0.009 0.584 0.016 0.795 0.021 0.215 0 0.388 0 0.521 0h2.404c0.009 0.091 0.016 0.18 0.021 0.267 0.009 0.082 0.014 0.155 0.014 0.219 0 0.078-0.002 0.148-0.007 0.212s-0.011 0.132-0.021 0.205c-0.009 0.064-0.018 0.132-0.027 0.205s-0.025 0.149-0.048 0.226c-0.064-0.247-0.151-0.434-0.26-0.562-0.105-0.128-0.212-0.221-0.322-0.281-0.128-0.068-0.263-0.105-0.404-0.11-0.187 0.009-0.333 0.025-0.438 0.048s-0.187 0.055-0.247 0.096c-0.059 0.041-0.105 0.089-0.137 0.144-0.027 0.050-0.057 0.107-0.089 0.171-0.027 0.055-0.052 0.139-0.075 0.253-0.023 0.096-0.046 0.226-0.069 0.39-0.018 0.164-0.039 0.377-0.062 0.637 0.123-0.037 0.221-0.071 0.295-0.103 0.078-0.032 0.139-0.059 0.185-0.082 0.050-0.027 0.087-0.053 0.11-0.075 0.018-0.027 0.046-0.078 0.082-0.151 0.027-0.064 0.064-0.151 0.11-0.26 0.050-0.11 0.11-0.26 0.178-0.452 0.009 0.21 0.014 0.386 0.014 0.528 0 0.137 0.002 0.249 0.007 0.336 0 0.1 0.002 0.18 0.007 0.24v0.26c0 0.096 0 0.226 0 0.39 0.005 0.16 0.011 0.363 0.021 0.61-0.055-0.169-0.105-0.301-0.151-0.397-0.041-0.1-0.078-0.176-0.11-0.226-0.037-0.059-0.068-0.1-0.096-0.123-0.032-0.009-0.075-0.018-0.13-0.028-0.050-0.004-0.114-0.007-0.192-0.007-0.073 0-0.167 0.011-0.281 0.034-0.014 0.251-0.016 0.454-0.007 0.61 0.014 0.151 0.032 0.267 0.055 0.349 0.023 0.096 0.050 0.164 0.082 0.206 0.041 0.041 0.123 0.075 0.247 0.103 0.123 0.023 0.263 0.032 0.418 0.027 0.16-0.009 0.322-0.037 0.486-0.082s0.31-0.121 0.438-0.226c0.096-0.087 0.199-0.196 0.308-0.329 0.091-0.114 0.192-0.258 0.301-0.432 0.114-0.174 0.226-0.384 0.336-0.63-0.018 0.205-0.032 0.377-0.041 0.514-0.005 0.132-0.011 0.24-0.021 0.322-0.009 0.096-0.016 0.169-0.021 0.219 0 0.055-0.007 0.132-0.021 0.233-0.009 0.087-0.025 0.205-0.048 0.356-0.018 0.146-0.043 0.333-0.075 0.562-0.215 0.005-0.418 0.009-0.61 0.014-0.192 0-0.361 0.002-0.507 0.007-0.173 0.005-0.333 0.009-0.479 0.014-0.151 0-0.317 0.007-0.5 0.021-0.16 0.009-0.349 0.023-0.569 0.041-0.215 0.018-0.452 0.043-0.712 0.075 0.023-0.311 0.039-0.603 0.048-0.877 0.014-0.279 0.023-0.523 0.027-0.733 0.005-0.247 0.005-0.475 0-0.685 0.023-0.525 0.014-0.95-0.027-1.274s-0.089-0.532-0.144-0.623c-0.027-0.032-0.066-0.071-0.116-0.116-0.041-0.036-0.098-0.080-0.171-0.13s-0.164-0.107-0.274-0.171zM3.982 26.445c0.132 0 0.242 0.002 0.329 0.007 0.087 0 0.155 0 0.205 0h0.295c0.064 0 0.148 0 0.253 0 0.11-0.005 0.251-0.012 0.425-0.021-0.082 0.018-0.146 0.039-0.192 0.062-0.046 0.018-0.080 0.039-0.103 0.062-0.027 0.023-0.043 0.048-0.048 0.075 0.005 0.037 0.021 0.094 0.048 0.171 0.023 0.069 0.062 0.162 0.116 0.281 0.059 0.119 0.146 0.279 0.26 0.48 0.192-0.219 0.338-0.393 0.438-0.521s0.176-0.226 0.226-0.295c0.050-0.078 0.080-0.13 0.089-0.158-0.005-0.023-0.011-0.046-0.021-0.068-0.014-0.037-0.048-0.094-0.103-0.171 0.123 0.009 0.231 0.016 0.322 0.020 0.091 0 0.169 0.002 0.233 0.007 0.073 0.005 0.132 0.007 0.178 0.007 0.050 0 0.123-0.002 0.219-0.007 0.078-0.005 0.183-0.009 0.315-0.014 0.137-0.009 0.308-0.023 0.514-0.041-0.169 0.082-0.313 0.162-0.432 0.24-0.119 0.073-0.217 0.139-0.295 0.199-0.091 0.068-0.167 0.132-0.226 0.192-0.059 0.068-0.132 0.153-0.219 0.253-0.078 0.091-0.174 0.205-0.288 0.343-0.11 0.132-0.244 0.299-0.404 0.5 0.119 0.205 0.231 0.381 0.336 0.527 0.11 0.146 0.203 0.267 0.281 0.363 0.091 0.114 0.176 0.206 0.253 0.274s0.162 0.137 0.253 0.206c0.078 0.059 0.167 0.123 0.267 0.192 0.105 0.064 0.217 0.121 0.336 0.171-0.119 0.009-0.235 0.016-0.349 0.021-0.11 0-0.208 0.005-0.295 0.014-0.1 0.009-0.196 0.016-0.288 0.021-0.091 0.009-0.185 0.016-0.281 0.021-0.082 0.005-0.174 0.009-0.274 0.014s-0.203 0.007-0.308 0.007c0.041-0.041 0.073-0.080 0.096-0.116s0.041-0.068 0.055-0.096c0.018-0.032 0.030-0.062 0.034-0.089-0.005-0.037-0.027-0.096-0.069-0.178-0.037-0.073-0.094-0.174-0.171-0.301-0.078-0.132-0.192-0.311-0.342-0.534-0.105 0.11-0.189 0.206-0.253 0.288-0.059 0.082-0.105 0.151-0.137 0.205-0.037 0.064-0.062 0.117-0.075 0.158-0.009 0.041-0.009 0.087 0 0.137 0.009 0.041 0.023 0.091 0.041 0.151 0.018 0.055 0.050 0.112 0.096 0.171-0.228 0.014-0.42 0.021-0.575 0.021h-0.233c-0.073 0-0.16-0.002-0.26-0.007-0.087-0.005-0.194-0.007-0.322-0.007-0.132-0.005-0.285-0.011-0.459-0.021 0.050-0.018 0.103-0.041 0.158-0.068s0.103-0.053 0.144-0.075c0.050-0.027 0.098-0.057 0.144-0.089 0.050-0.041 0.13-0.119 0.24-0.233 0.091-0.096 0.217-0.231 0.377-0.404 0.16-0.178 0.368-0.416 0.623-0.712-0.151-0.274-0.274-0.491-0.37-0.651-0.091-0.164-0.162-0.292-0.212-0.384-0.059-0.105-0.103-0.176-0.13-0.212s-0.064-0.078-0.11-0.123c-0.073-0.073-0.192-0.16-0.356-0.26zM6.724 27.055c0.146-0.023 0.265-0.041 0.356-0.055 0.096-0.018 0.173-0.032 0.233-0.041 0.069-0.014 0.121-0.025 0.158-0.034s0.089-0.023 0.158-0.041c0.059-0.018 0.137-0.039 0.233-0.062 0.096-0.027 0.217-0.064 0.363-0.11-0.037 0.046-0.066 0.087-0.089 0.123-0.018 0.032-0.037 0.059-0.055 0.082-0.018 0.028-0.034 0.053-0.048 0.075s-0.027 0.057-0.041 0.103c-0.009 0.037-0.021 0.089-0.034 0.158-0.014 0.064-0.025 0.148-0.034 0.253 0.247-0.155 0.473-0.272 0.678-0.349 0.21-0.078 0.393-0.132 0.548-0.164 0.183-0.036 0.347-0.050 0.493-0.041 0.183 0.014 0.352 0.055 0.507 0.123 0.16 0.064 0.304 0.142 0.431 0.233s0.24 0.192 0.336 0.301 0.171 0.219 0.226 0.329c0.037 0.073 0.059 0.178 0.069 0.315 0.014 0.137 0 0.283-0.041 0.438s-0.114 0.308-0.219 0.459c-0.1 0.146-0.244 0.263-0.431 0.349-0.324 0.146-0.646 0.228-0.966 0.247-0.137 0.009-0.279 0.005-0.425-0.014-0.142-0.018-0.285-0.057-0.431-0.116-0.142-0.059-0.279-0.144-0.411-0.253-0.132-0.114-0.253-0.26-0.363-0.438-0.037 0.233-0.064 0.436-0.082 0.61-0.014 0.169-0.023 0.311-0.027 0.425-0.005 0.132-0.005 0.244 0 0.336 0.009 0.091 0.027 0.189 0.055 0.294 0.023 0.091 0.055 0.196 0.096 0.315 0.046 0.123 0.103 0.251 0.171 0.384-0.027-0.009-0.066-0.016-0.116-0.021-0.046 0-0.094 0.005-0.144 0.014-0.055 0.009-0.116 0.018-0.185 0.027-0.064 0.014-0.135 0.030-0.212 0.048-0.064 0.014-0.139 0.030-0.226 0.048-0.082 0.023-0.167 0.048-0.253 0.075 0.050-0.059 0.089-0.128 0.116-0.205 0.032-0.073 0.057-0.142 0.075-0.206 0.018-0.078 0.034-0.155 0.048-0.233 0.005-0.069 0.011-0.199 0.021-0.391 0.014-0.187 0.025-0.404 0.034-0.651 0.009-0.251 0.016-0.514 0.021-0.788 0.009-0.274 0.014-0.527 0.014-0.76 0.005-0.237 0.005-0.438 0-0.603s-0.014-0.26-0.027-0.288c-0.018-0.032-0.053-0.066-0.103-0.103-0.041-0.032-0.1-0.064-0.178-0.096-0.073-0.032-0.171-0.066-0.295-0.103zM8.354 28.301c-0.032 0.105-0.039 0.208-0.021 0.308s0.064 0.194 0.137 0.281c0.078 0.087 0.185 0.164 0.322 0.233 0.142 0.064 0.317 0.112 0.527 0.144s0.37 0.027 0.479-0.014c0.11-0.041 0.19-0.105 0.24-0.192 0.055-0.091 0.091-0.196 0.11-0.315 0.018-0.123 0.041-0.251 0.069-0.384 0.027-0.128 0.023-0.258-0.014-0.39-0.037-0.137-0.089-0.26-0.158-0.37-0.064-0.11-0.137-0.199-0.219-0.267-0.078-0.073-0.146-0.11-0.205-0.11-0.142 0-0.281 0.036-0.418 0.11s-0.263 0.164-0.377 0.274-0.215 0.228-0.301 0.356c-0.082 0.123-0.139 0.235-0.171 0.336zM12.781 29.144c0.128 0 0.247-0.014 0.356-0.041 0.091-0.023 0.178-0.059 0.26-0.11 0.087-0.055 0.144-0.135 0.171-0.24 0.091 0.018 0.169 0.034 0.233 0.048 0.064 0.009 0.119 0.018 0.164 0.027 0.050 0.014 0.094 0.023 0.13 0.027 0.037 0.009 0.080 0.018 0.13 0.027 0.046 0.009 0.1 0.021 0.164 0.034 0.069 0.009 0.148 0.023 0.24 0.041-0.069-0.009-0.139-0.002-0.212 0.021-0.069 0.023-0.135 0.048-0.199 0.075-0.073 0.032-0.142 0.071-0.205 0.117-0.041 0.027-0.089 0.068-0.144 0.123-0.050 0.055-0.123 0.107-0.219 0.158s-0.224 0.094-0.384 0.13c-0.155 0.032-0.356 0.043-0.603 0.034-0.297-0.009-0.546-0.062-0.747-0.158-0.201-0.1-0.363-0.221-0.486-0.363-0.123-0.146-0.212-0.304-0.267-0.473s-0.084-0.327-0.089-0.473c-0.005-0.146 0.039-0.299 0.13-0.459s0.219-0.306 0.384-0.438c0.169-0.132 0.372-0.24 0.61-0.322 0.237-0.087 0.498-0.13 0.781-0.13 0.164 0 0.315 0.021 0.452 0.062 0.142 0.037 0.269 0.087 0.384 0.151 0.119 0.064 0.221 0.137 0.308 0.219 0.087 0.078 0.16 0.158 0.219 0.24 0.059 0.087 0.11 0.178 0.151 0.274 0.037 0.082 0.066 0.176 0.089 0.281s0.030 0.212 0.021 0.322c-0.347 0.009-0.628 0.016-0.842 0.021-0.21 0.004-0.374 0.007-0.493 0.007h-0.541c-0.082 0-0.189 0.002-0.322 0.007s-0.295 0.011-0.486 0.021c0.023 0.183 0.080 0.324 0.171 0.425 0.096 0.096 0.196 0.169 0.301 0.219 0.119 0.055 0.249 0.087 0.39 0.096zM12.164 27.911c0.146 0.009 0.267 0.016 0.363 0.021 0.1 0.004 0.183 0.009 0.247 0.014 0.069 0.005 0.123 0.007 0.164 0.007h0.171c0.114 0 0.326-0.007 0.637-0.020-0.014-0.201-0.057-0.354-0.13-0.459-0.069-0.105-0.142-0.183-0.219-0.233-0.091-0.055-0.192-0.087-0.301-0.096-0.297 0.005-0.518 0.066-0.664 0.185-0.142 0.119-0.231 0.313-0.267 0.582zM14.317 26.966c0.087 0.005 0.164 0.007 0.233 0.007 0.073-0.004 0.135-0.009 0.185-0.014 0.059-0.005 0.112-0.009 0.158-0.014 0.069-0.009 0.139-0.021 0.212-0.034 0.064-0.009 0.13-0.020 0.199-0.034 0.073-0.018 0.144-0.039 0.212-0.062-0.027 0.068-0.050 0.128-0.069 0.178s-0.032 0.094-0.041 0.13c-0.014 0.041-0.021 0.075-0.021 0.103-0.005 0.032-0.007 0.071-0.007 0.116-0.005 0.078-0.005 0.203 0 0.377 0.237-0.206 0.436-0.365 0.596-0.48 0.164-0.114 0.294-0.203 0.39-0.267 0.114-0.073 0.203-0.121 0.267-0.144 0.169-0.027 0.317 0.011 0.445 0.117 0.055 0.046 0.107 0.107 0.158 0.185 0.050 0.073 0.094 0.171 0.13 0.295s0.064 0.272 0.082 0.445c0.018 0.169 0.021 0.372 0.007 0.61-0.096 0.009-0.183 0.018-0.26 0.027-0.073 0.009-0.135 0.016-0.185 0.021-0.059 0.009-0.114 0.014-0.164 0.014l-0.185 0.020c-0.064 0.009-0.144 0.018-0.24 0.028-0.091 0.004-0.203 0.014-0.336 0.027 0.192-0.155 0.315-0.29 0.37-0.404 0.059-0.119 0.084-0.217 0.075-0.295-0.009-0.087-0.050-0.162-0.123-0.226-0.087-0.050-0.18-0.069-0.281-0.055-0.087 0.009-0.187 0.048-0.301 0.116s-0.235 0.196-0.363 0.384c0.009 0.292 0.018 0.534 0.027 0.726 0.014 0.192 0.025 0.347 0.034 0.466 0.014 0.137 0.025 0.244 0.034 0.322 0.014 0.069 0.041 0.142 0.082 0.219 0.032 0.064 0.078 0.135 0.137 0.212s0.137 0.155 0.233 0.233c-0.201-0.009-0.365-0.009-0.493 0-0.078 0.005-0.146 0.009-0.205 0.014-0.064 0.009-0.132 0.018-0.205 0.027-0.064 0.009-0.139 0.018-0.226 0.027-0.082 0.014-0.174 0.027-0.274 0.041 0.037-0.050 0.066-0.11 0.089-0.178 0.023-0.064 0.041-0.126 0.055-0.185 0.018-0.068 0.032-0.139 0.041-0.212 0.005-0.064 0.007-0.16 0.007-0.288 0.005-0.128 0.002-0.272-0.007-0.432-0.005-0.164-0.011-0.333-0.021-0.507-0.009-0.178-0.021-0.345-0.034-0.5s-0.030-0.29-0.048-0.404c-0.014-0.119-0.030-0.201-0.048-0.247-0.023-0.055-0.050-0.11-0.082-0.164-0.027-0.050-0.062-0.103-0.103-0.158-0.041-0.059-0.087-0.121-0.137-0.185zM17.251 27.185l1.26 0.014c-0.073 0.279-0.128 0.516-0.164 0.712-0.032 0.196-0.052 0.361-0.062 0.493-0.018 0.151-0.023 0.279-0.014 0.384 0.014 0.096 0.037 0.199 0.069 0.308 0.027 0.091 0.069 0.196 0.123 0.315s0.128 0.237 0.219 0.356c-0.055-0.018-0.114-0.032-0.178-0.041s-0.123-0.016-0.178-0.021c-0.064-0.005-0.128-0.005-0.192 0s-0.135 0.011-0.212 0.021c-0.064 0.009-0.142 0.021-0.233 0.034s-0.187 0.032-0.288 0.055c0.069-0.205 0.121-0.384 0.158-0.534 0.041-0.151 0.071-0.276 0.089-0.377 0.018-0.119 0.030-0.215 0.034-0.288 0-0.091 0-0.194 0-0.308 0-0.119 0-0.233 0-0.342s-0.002-0.206-0.007-0.288c-0.005-0.087-0.014-0.142-0.027-0.164l-0.069-0.068c-0.027-0.023-0.069-0.055-0.123-0.096-0.050-0.046-0.119-0.1-0.205-0.164zM17.737 26.13c0.096-0.050 0.192-0.064 0.288-0.041 0.1 0.023 0.178 0.066 0.233 0.13s0.073 0.139 0.055 0.226c-0.014 0.087-0.087 0.171-0.219 0.253-0.132 0.078-0.249 0.105-0.349 0.082s-0.171-0.071-0.212-0.144c-0.041-0.073-0.048-0.158-0.021-0.253 0.027-0.1 0.103-0.185 0.226-0.253zM20.219 29.144c0.128 0 0.247-0.014 0.356-0.041 0.091-0.023 0.178-0.059 0.26-0.11 0.087-0.055 0.144-0.135 0.171-0.24 0.091 0.018 0.169 0.034 0.233 0.048 0.064 0.009 0.119 0.018 0.164 0.027 0.050 0.014 0.094 0.023 0.13 0.027 0.037 0.009 0.080 0.018 0.13 0.027 0.046 0.009 0.1 0.021 0.164 0.034 0.069 0.009 0.148 0.023 0.24 0.041-0.069-0.009-0.139-0.002-0.212 0.021-0.069 0.023-0.135 0.048-0.199 0.075-0.073 0.032-0.142 0.071-0.205 0.117-0.041 0.027-0.089 0.068-0.144 0.123-0.050 0.055-0.123 0.107-0.219 0.158s-0.224 0.094-0.384 0.13c-0.155 0.032-0.356 0.043-0.603 0.034-0.297-0.009-0.546-0.062-0.747-0.158-0.201-0.1-0.363-0.221-0.486-0.363-0.123-0.146-0.212-0.304-0.267-0.473s-0.084-0.327-0.089-0.473c-0.005-0.146 0.039-0.299 0.13-0.459s0.219-0.306 0.384-0.438c0.169-0.132 0.372-0.24 0.61-0.322 0.237-0.087 0.498-0.13 0.781-0.13 0.164 0 0.315 0.021 0.452 0.062 0.142 0.037 0.269 0.087 0.384 0.151 0.119 0.064 0.221 0.137 0.308 0.219 0.087 0.078 0.16 0.158 0.219 0.24 0.059 0.087 0.11 0.178 0.151 0.274 0.037 0.082 0.066 0.176 0.089 0.281s0.030 0.212 0.021 0.322c-0.347 0.009-0.628 0.016-0.842 0.021-0.21 0.004-0.374 0.007-0.493 0.007h-0.541c-0.082 0-0.189 0.002-0.322 0.007s-0.294 0.011-0.486 0.021c0.023 0.183 0.080 0.324 0.171 0.425 0.096 0.096 0.196 0.169 0.301 0.219 0.119 0.055 0.249 0.087 0.39 0.096zM19.602 27.911c0.146 0.009 0.267 0.016 0.363 0.021 0.1 0.004 0.183 0.009 0.247 0.014 0.069 0.005 0.123 0.007 0.164 0.007h0.171c0.114 0 0.326-0.007 0.637-0.020-0.014-0.201-0.057-0.354-0.13-0.459-0.069-0.105-0.142-0.183-0.219-0.233-0.091-0.055-0.192-0.087-0.301-0.096-0.297 0.005-0.518 0.066-0.664 0.185-0.142 0.119-0.231 0.313-0.267 0.582zM22.036 29.493c0.032-0.151 0.055-0.283 0.068-0.397 0.018-0.119 0.032-0.217 0.041-0.295 0.009-0.091 0.014-0.169 0.014-0.233-0.005-0.078-0.009-0.169-0.014-0.274 0-0.11-0.005-0.217-0.014-0.322-0.005-0.11-0.011-0.205-0.021-0.288-0.009-0.087-0.020-0.148-0.034-0.185-0.018-0.037-0.043-0.075-0.075-0.116-0.064-0.078-0.157-0.153-0.281-0.226 0.105-0.023 0.194-0.041 0.267-0.055 0.078-0.018 0.142-0.034 0.192-0.048 0.055-0.018 0.103-0.034 0.144-0.048 0.037-0.014 0.080-0.027 0.13-0.041 0.041-0.009 0.091-0.020 0.151-0.034s0.128-0.030 0.206-0.048l-0.021 0.623c0.146-0.174 0.295-0.304 0.445-0.39s0.292-0.148 0.425-0.185c0.151-0.046 0.299-0.069 0.445-0.069 0.183 0.009 0.352 0.039 0.507 0.089 0.16 0.050 0.297 0.11 0.411 0.178 0.119 0.064 0.215 0.132 0.288 0.206s0.116 0.137 0.13 0.192c0.055 0.178 0.068 0.342 0.041 0.493-0.027 0.146-0.064 0.29-0.11 0.431-0.041 0.137-0.078 0.274-0.11 0.411-0.027 0.137-0.016 0.285 0.034 0.445 0.018 0.041 0.036 0.082 0.055 0.123 0.018 0.037 0.041 0.073 0.068 0.11s0.059 0.066 0.096 0.089c-0.050-0.005-0.101-0.007-0.151-0.007-0.050-0.005-0.096-0.009-0.137-0.014-0.050-0.005-0.096-0.009-0.137-0.014-0.046-0.005-0.107-0.007-0.185-0.007-0.132 0-0.338 0.007-0.616 0.021 0.041-0.096 0.073-0.176 0.096-0.24 0.027-0.068 0.050-0.123 0.069-0.164 0.018-0.050 0.032-0.089 0.041-0.116 0.055-0.132 0.087-0.283 0.096-0.452 0.014-0.169 0.002-0.34-0.034-0.514-0.014-0.059-0.037-0.13-0.069-0.212s-0.075-0.162-0.13-0.24c-0.050-0.078-0.112-0.144-0.185-0.199-0.069-0.055-0.148-0.087-0.24-0.096s-0.194 0.014-0.308 0.069c-0.11 0.055-0.228 0.155-0.356 0.301-0.096 0.123-0.171 0.274-0.226 0.452-0.050 0.151-0.084 0.34-0.103 0.569-0.018 0.224 0.009 0.486 0.082 0.788-0.064-0.009-0.123-0.014-0.178-0.014-0.055-0.005-0.1-0.009-0.137-0.014-0.046-0.005-0.087-0.009-0.123-0.014-0.041 0-0.087-0.002-0.137-0.007-0.046 0-0.103 0-0.171 0-0.068-0.005-0.148-0.009-0.24-0.014zM29.271 27.815c-0.055-0.009-0.123-0.016-0.206-0.021-0.078-0.004-0.153-0.007-0.226-0.007-0.082 0-0.169 0.002-0.26 0.007-0.096 0.005-0.192 0.009-0.288 0.014-0.082 0.005-0.176 0.011-0.281 0.021-0.101 0.005-0.199 0.011-0.295 0.020 0.037-0.018 0.069-0.043 0.096-0.075 0.032-0.032 0.059-0.064 0.082-0.096 0.023-0.036 0.043-0.075 0.062-0.116 0.023-0.068 0.021-0.151-0.007-0.247-0.027-0.1-0.078-0.192-0.151-0.274-0.068-0.082-0.158-0.146-0.267-0.192-0.105-0.050-0.221-0.062-0.349-0.034-0.137 0.032-0.26 0.080-0.37 0.144-0.105 0.064-0.194 0.153-0.267 0.267-0.068 0.11-0.119 0.247-0.151 0.411-0.027 0.16-0.034 0.352-0.021 0.575 0.018 0.279 0.064 0.5 0.137 0.664s0.162 0.288 0.267 0.37c0.105 0.082 0.219 0.132 0.342 0.151 0.128 0.014 0.254 0.014 0.377 0 0.087-0.018 0.167-0.057 0.24-0.116 0.059-0.050 0.114-0.123 0.164-0.219s0.073-0.228 0.068-0.397l0.836-0.034c-0.096 0.269-0.212 0.484-0.349 0.644-0.137 0.155-0.269 0.276-0.397 0.363-0.151 0.1-0.301 0.169-0.452 0.205-0.187 0.032-0.354 0.046-0.5 0.041-0.146-0.009-0.279-0.032-0.397-0.069s-0.228-0.082-0.329-0.137c-0.1-0.055-0.196-0.114-0.288-0.178-0.059-0.041-0.126-0.11-0.199-0.206s-0.142-0.21-0.206-0.342c-0.064-0.137-0.116-0.288-0.158-0.452s-0.057-0.333-0.048-0.507c0.009-0.178 0.050-0.356 0.123-0.534s0.19-0.349 0.349-0.514c0.242-0.247 0.5-0.407 0.774-0.48 0.279-0.078 0.541-0.098 0.788-0.062 0.247 0.032 0.466 0.103 0.658 0.212s0.326 0.228 0.404 0.356c0.078 0.128 0.135 0.226 0.171 0.295 0.041 0.064 0.071 0.114 0.089 0.151 0.023 0.032 0.041 0.057 0.055 0.075 0.018 0.014 0.043 0.034 0.075 0.062 0.023 0.023 0.050 0.048 0.082 0.075 0.027 0.023 0.059 0.050 0.096 0.082s0.078 0.066 0.123 0.103zM30.458 29.144c0.128 0 0.247-0.014 0.356-0.041 0.091-0.023 0.178-0.059 0.26-0.11 0.087-0.055 0.144-0.135 0.171-0.24 0.091 0.018 0.169 0.034 0.233 0.048 0.064 0.009 0.119 0.018 0.164 0.027 0.050 0.014 0.094 0.023 0.13 0.027 0.037 0.009 0.080 0.018 0.13 0.027 0.046 0.009 0.1 0.021 0.164 0.034 0.068 0.009 0.148 0.023 0.24 0.041-0.068-0.009-0.139-0.002-0.212 0.021-0.069 0.023-0.135 0.048-0.199 0.075-0.073 0.032-0.141 0.071-0.205 0.117-0.041 0.027-0.089 0.068-0.144 0.123-0.050 0.055-0.123 0.107-0.219 0.158s-0.224 0.094-0.384 0.13c-0.155 0.032-0.356 0.043-0.603 0.034-0.297-0.009-0.546-0.062-0.747-0.158-0.201-0.1-0.363-0.221-0.486-0.363-0.123-0.146-0.212-0.304-0.267-0.473s-0.084-0.327-0.089-0.473c-0.005-0.146 0.039-0.299 0.13-0.459s0.219-0.306 0.384-0.438c0.169-0.132 0.372-0.24 0.61-0.322 0.237-0.087 0.498-0.13 0.781-0.13 0.164 0 0.315 0.021 0.452 0.062 0.142 0.037 0.269 0.087 0.384 0.151 0.119 0.064 0.221 0.137 0.308 0.219 0.087 0.078 0.16 0.158 0.219 0.24 0.059 0.087 0.11 0.178 0.151 0.274 0.037 0.082 0.066 0.176 0.089 0.281s0.030 0.212 0.020 0.322c-0.347 0.009-0.628 0.016-0.842 0.021-0.21 0.004-0.375 0.007-0.493 0.007h-0.541c-0.082 0-0.19 0.002-0.322 0.007s-0.295 0.011-0.486 0.021c0.023 0.183 0.080 0.324 0.171 0.425 0.096 0.096 0.196 0.169 0.301 0.219 0.119 0.055 0.249 0.087 0.39 0.096zM29.842 27.911c0.146 0.009 0.267 0.016 0.363 0.021 0.1 0.004 0.183 0.009 0.247 0.014 0.068 0.005 0.123 0.007 0.164 0.007h0.171c0.114 0 0.327-0.007 0.637-0.020-0.014-0.201-0.057-0.354-0.13-0.459-0.068-0.105-0.141-0.183-0.219-0.233-0.091-0.055-0.192-0.087-0.301-0.096-0.297 0.005-0.518 0.066-0.664 0.185-0.142 0.119-0.231 0.313-0.267 0.582z"></path>
</symbol>
</defs>
</svg>
